<svg width="423" height="63" viewBox="0 0 423 63" fill="none" xmlns="http://www.w3.org/2000/svg">
<path d="M183.366 0.0705814H14.9462C14.3782 0.0705814 13.8102 0.0705814 13.2421 0.0705814C12.7451 0.0705814 12.2836 0.0705814 11.7866 0.105628C10.7215 0.105628 9.69197 0.210768 8.66242 0.386001C7.63287 0.561233 6.60332 0.876653 5.68027 1.3673C4.75723 1.82291 3.86969 2.45375 3.15965 3.18973C2.41412 3.9257 1.77509 4.76682 1.31356 5.67803C0.852041 6.58924 0.497024 7.57055 0.319515 8.62195C0.142007 9.6383 0.0355017 10.6546 0.0355017 11.706C0.0355017 12.1616 0.0355017 12.6523 0 13.1079V48.6451C0 49.1358 0 49.5914 0.0355017 50.047C0.0355017 51.0633 0.142007 52.1147 0.319515 53.1311C0.497024 54.1474 0.816539 55.1287 1.31356 56.075C1.77509 56.9862 2.41412 57.8273 3.15965 58.5633C3.90519 59.2993 4.75723 59.8951 5.68027 60.3857C6.60332 60.8413 7.63287 61.1918 8.66242 61.367C9.69197 61.5423 10.757 61.6124 11.7866 61.6474C12.2836 61.6474 12.7451 61.6474 13.2421 61.6474C13.8102 61.6474 14.3782 61.6474 14.9462 61.6474H183.366C183.934 61.6474 184.502 61.6474 185.07 61.6474C185.532 61.6474 186.029 61.6474 186.526 61.6474C187.591 61.6474 188.621 61.5423 189.65 61.367C190.68 61.1918 191.709 60.8764 192.632 60.3857C193.555 59.9301 194.443 59.2993 195.153 58.5633C195.898 57.8273 196.537 56.9862 196.999 56.075C197.461 55.1638 197.816 54.1825 197.958 53.1311C198.135 52.1147 198.242 51.0984 198.242 50.047C198.242 49.5563 198.242 49.1007 198.242 48.6451C198.242 48.0844 198.242 47.5236 198.242 46.9629V14.72C198.242 14.1593 198.242 13.5986 198.242 13.0378C198.242 12.5822 198.242 12.0916 198.242 11.636C198.206 10.6196 198.135 9.5682 197.958 8.55185C197.78 7.5355 197.461 6.5542 196.999 5.60794C196.04 3.75047 194.514 2.24347 192.597 1.29721C191.638 0.841606 190.644 0.49114 189.615 0.315907C188.585 0.140675 187.52 0.0705814 186.49 0.0355349C186.029 0.0355349 185.532 0.0355349 185.035 0.000488281C184.502 0.0705814 183.899 0.0705814 183.366 0.0705814Z" fill="#A6A6A6"/>
<path d="M13.2415 60.2455C12.78 60.2455 12.283 60.2455 11.8215 60.2455C10.8274 60.2455 9.86886 60.1404 8.87481 60.0002C7.98727 59.86 7.09973 59.5796 6.28319 59.1591C5.46665 58.7736 4.72111 58.2128 4.08208 57.582C3.44305 56.9512 2.87502 56.2152 2.4845 55.4442C2.05848 54.6381 1.77447 53.797 1.63246 52.8857C1.45495 51.9395 1.38395 50.9582 1.38395 50.0119C1.38395 49.6965 1.34845 48.6101 1.34845 48.6101V13.0729C1.34845 13.0729 1.34845 12.0215 1.38395 11.706C1.38395 10.7247 1.49046 9.77847 1.63246 8.83222C1.77447 7.95605 2.05848 7.07989 2.4845 6.27382C2.91053 5.46775 3.44305 4.76681 4.08208 4.13598C4.72111 3.50514 5.46665 2.97944 6.28319 2.55888C7.09973 2.10328 7.98727 1.8229 8.87481 1.68272C9.83336 1.54253 10.8274 1.43739 11.8215 1.43739L13.2415 1.40234H185.034L186.454 1.43739C187.413 1.43739 188.407 1.54253 189.366 1.68272C190.289 1.8229 191.176 2.10328 191.993 2.52383C193.626 3.32991 194.939 4.66167 195.791 6.23877C196.217 7.04484 196.466 7.88596 196.643 8.76212C196.821 9.70838 196.892 10.6897 196.927 11.671C196.927 12.0915 196.927 12.5822 196.927 13.0378C196.927 13.5985 196.927 14.1593 196.927 14.72V46.8928C196.927 47.4535 196.927 48.0143 196.927 48.54C196.927 49.0306 196.927 49.4862 196.927 49.9769C196.892 50.9231 196.821 51.8694 196.643 52.8157C196.501 53.7269 196.217 54.568 195.791 55.3741C195.365 56.1451 194.833 56.8811 194.194 57.5119C193.555 58.1427 192.809 58.6684 191.993 59.089C191.176 59.5096 190.289 59.7899 189.366 59.9301C188.407 60.0703 187.413 60.1754 186.419 60.1754C185.957 60.1754 185.496 60.1754 184.999 60.1754H183.295L13.2415 60.2455Z" fill="black"/>
<path d="M38.8383 31.2968C38.8383 30.0001 39.1933 28.7384 39.8323 27.6519C40.4714 26.5305 41.3944 25.5842 42.5305 24.9183C41.8204 23.937 40.8974 23.0959 39.7968 22.5352C38.6963 21.9744 37.4892 21.6239 36.2822 21.5889C33.655 21.3085 31.0989 23.1309 29.7498 23.1309C28.3653 23.1309 26.3062 21.6239 24.1051 21.659C22.6495 21.694 21.2649 22.1146 20.0224 22.8506C18.7798 23.5865 17.7858 24.6379 17.0757 25.8646C14.0581 31.0164 16.2947 38.5865 19.2058 42.757C20.6614 44.7897 22.3655 47.0677 24.5666 46.9977C26.7322 46.8925 27.5487 45.6308 30.1759 45.6308C32.7675 45.6308 33.5485 46.9977 35.8206 46.9276C38.1638 46.8925 39.6193 44.8949 41.0394 42.8271C42.0689 41.3902 42.8855 39.7781 43.418 38.0608C42.0689 37.5 40.8974 36.5538 40.0808 35.3622C39.2643 34.1356 38.8383 32.7337 38.8383 31.2968Z" fill="white"/>
<path d="M34.542 18.8553C35.82 17.3483 36.4236 15.4207 36.2816 13.4932C34.329 13.7034 32.5539 14.6147 31.2403 16.0516C30.6013 16.7525 30.1398 17.5586 29.8203 18.4698C29.5007 19.3459 29.3942 20.2922 29.4652 21.2385C30.4238 21.2385 31.3823 21.0282 32.2699 20.6427C33.1574 20.1871 33.9385 19.5913 34.542 18.8553Z" fill="white"/>
<path d="M55.8788 22.6754V14.7899H52.9321V13.4932H60.2455V14.7899H57.2988V22.6754H55.8788Z" fill="white"/>
<path d="M67.0269 20.818C66.8494 21.4489 66.4233 22.0096 65.8553 22.3601C65.2873 22.7105 64.6128 22.8858 63.9382 22.8157C63.4767 22.8157 63.0152 22.7456 62.5892 22.5704C62.1631 22.3951 61.7726 22.1147 61.4531 21.7643C61.1336 21.4138 60.9206 21.0283 60.7786 20.5727C60.6366 20.1521 60.6011 19.6615 60.6721 19.2409C60.6011 18.7853 60.6366 18.3297 60.7786 17.8741C60.9206 17.4536 61.1336 17.033 61.4531 16.6825C61.7726 16.3321 62.1276 16.0517 62.5537 15.8765C62.9797 15.7012 63.4412 15.5961 63.9027 15.5961C65.8553 15.5961 67.0624 16.9279 67.0624 19.1007V19.5914H62.0921V19.6615C62.0566 19.9068 62.0921 20.1872 62.1986 20.3975C62.2696 20.6428 62.4117 20.8531 62.5892 21.0634C62.7667 21.2386 62.9797 21.4138 63.2282 21.4839C63.4767 21.589 63.7252 21.6241 63.9737 21.6241C64.2932 21.6591 64.6483 21.5891 64.9323 21.4489C65.2163 21.3087 65.4648 21.0634 65.6423 20.783H67.0269V20.818ZM62.1276 18.575H65.6778C65.6778 18.3297 65.6778 18.1194 65.5713 17.8741C65.5003 17.6638 65.3583 17.4536 65.2163 17.2783C65.0388 17.1031 64.8613 16.9629 64.6483 16.8928C64.4353 16.7877 64.1867 16.7526 63.9382 16.7526C63.6897 16.7526 63.4412 16.7877 63.2282 16.8928C63.0152 16.9979 62.8022 17.1031 62.6247 17.2783C62.4472 17.4536 62.3052 17.6288 62.2341 17.8741C62.1631 18.1194 62.1276 18.3297 62.1276 18.575ZM63.1217 14.6148L64.7548 12.4419H66.3878L64.5773 14.6148H63.1217Z" fill="white"/>
<path d="M69.0511 13.0376H70.4357V22.6754H69.0511V13.0376Z" fill="white"/>
<path d="M78.7063 20.818C78.5288 21.4489 78.1028 22.0096 77.5347 22.3601C76.9667 22.7105 76.2922 22.8858 75.6176 22.8157C75.1561 22.8157 74.6946 22.7456 74.2686 22.5704C73.8426 22.3951 73.452 22.1147 73.1325 21.7643C72.813 21.4138 72.6 21.0283 72.458 20.5727C72.316 20.1521 72.2805 19.6615 72.3515 19.2409C72.2805 18.7853 72.316 18.3297 72.458 17.8741C72.6 17.4536 72.813 17.033 73.1325 16.6825C73.452 16.3321 73.8071 16.0517 74.2331 15.8765C74.6591 15.7012 75.1206 15.5961 75.5821 15.5961C77.5347 15.5961 78.7418 16.9279 78.7418 19.1007V19.5914H73.7716V19.6615C73.736 19.9068 73.7716 20.1872 73.8781 20.3975C73.9491 20.6428 74.0911 20.8531 74.2686 21.0634C74.4461 21.2386 74.6591 21.4138 74.9076 21.4839C75.1561 21.589 75.4046 21.6241 75.6531 21.6241C75.9727 21.6591 76.3277 21.5891 76.6117 21.4489C76.8957 21.3087 77.1442 21.0634 77.3217 20.783H78.7063V20.818ZM73.807 18.575H77.3572C77.3572 18.3297 77.3572 18.1194 77.2507 17.8741C77.1797 17.6638 77.0377 17.4536 76.8957 17.2783C76.7182 17.1031 76.5407 16.9629 76.3277 16.8928C76.1147 16.7877 75.8662 16.7526 75.6176 16.7526C75.3691 16.7526 75.1206 16.7877 74.9076 16.8928C74.6946 16.9979 74.4816 17.1031 74.3041 17.2783C74.1266 17.4536 73.9846 17.6288 73.9136 17.8741C73.8426 18.1194 73.807 18.3297 73.807 18.575ZM74.8011 14.6148L76.4342 12.4419H78.0673L76.2567 14.6148H74.8011Z" fill="white"/>
<path d="M85.2738 18.0147C85.1673 17.6642 84.9543 17.3488 84.6703 17.1385C84.3508 16.9282 83.9957 16.8231 83.6052 16.8581C82.4337 16.8581 81.7236 17.7343 81.7236 19.2062C81.7236 20.7132 82.4337 21.5894 83.6052 21.5894C83.9602 21.6245 84.3508 21.5544 84.6703 21.3441C84.9898 21.1338 85.2028 20.8184 85.2738 20.4679H86.6229C86.5164 21.1688 86.1613 21.7997 85.5933 22.2553C85.0253 22.7109 84.3153 22.8861 83.6052 22.8511C83.1437 22.8511 82.6467 22.781 82.2207 22.6058C81.7946 22.4305 81.4041 22.1501 81.0846 21.7997C80.7651 21.4492 80.5166 21.0637 80.4101 20.6081C80.2681 20.1525 80.2326 19.6969 80.3036 19.2413C80.2326 18.7857 80.2681 18.3301 80.4101 17.8745C80.5521 17.4189 80.8006 17.0333 81.0846 16.6829C81.4041 16.3324 81.7946 16.0871 82.2207 15.9119C82.6467 15.7366 83.1082 15.6665 83.5697 15.6665C84.2798 15.5964 85.0253 15.8067 85.5933 16.2623C86.1613 16.7179 86.5164 17.3488 86.6229 18.0497H85.2738V18.0147Z" fill="white"/>
<path d="M88.47 13.0376H89.8546V16.8577H89.9611C90.1386 16.4722 90.4581 16.1217 90.8486 15.9114C91.2391 15.7011 91.6651 15.596 92.1267 15.631C92.4817 15.596 92.8012 15.6661 93.1207 15.8063C93.4402 15.9465 93.7242 16.1217 93.9373 16.367C94.1858 16.6123 94.3278 16.8927 94.4343 17.2432C94.5408 17.5586 94.5763 17.9091 94.5053 18.2245V22.7104H93.1207V18.5399C93.1207 17.4184 92.5882 16.8577 91.5941 16.8577C91.3456 16.8226 91.0971 16.8577 90.8841 16.9628C90.6711 17.0329 90.4581 17.1731 90.2806 17.3483C90.1031 17.5236 89.9966 17.7338 89.8901 17.9441C89.8191 18.1544 89.7836 18.3997 89.7836 18.645V22.6754H88.399L88.47 13.0376Z" fill="white"/>
<path d="M96.3151 20.713C96.3151 19.4513 97.2736 18.7504 98.9422 18.6452L100.859 18.5401V17.9443C100.859 17.2083 100.362 16.7878 99.4037 16.7878C98.6227 16.7878 98.0902 17.0681 97.9481 17.5588H96.5636C96.7056 16.3672 97.8416 15.5962 99.4392 15.5962C101.214 15.5962 102.208 16.4724 102.208 17.9093V22.6406H100.859V21.6592H100.753C100.54 22.0097 100.22 22.2901 99.8297 22.5004C99.4747 22.6756 99.0487 22.7807 98.6227 22.7457C98.3387 22.7807 98.0191 22.7457 97.7351 22.6406C97.4511 22.5354 97.2026 22.3952 96.9541 22.22C96.7411 22.0097 96.5636 21.7994 96.4216 21.5191C96.3506 21.3088 96.3151 21.0284 96.3151 20.713ZM100.824 20.1172V19.5214L99.0842 19.6265C98.1257 19.6966 97.6641 20.0121 97.6641 20.6078C97.6641 21.2387 98.2322 21.5892 98.9777 21.5892C99.1907 21.6242 99.4392 21.5892 99.6522 21.5191C99.8652 21.449 100.078 21.3438 100.22 21.2036C100.398 21.0635 100.54 20.8882 100.646 20.6779C100.753 20.5728 100.824 20.3625 100.824 20.1172Z" fill="white"/>
<path d="M104.41 15.7714H105.759V16.8228H105.866C106.008 16.4373 106.292 16.157 106.611 15.9467C106.966 15.7364 107.357 15.6313 107.747 15.6663C107.96 15.6663 108.173 15.6663 108.386 15.7364V17.0682C108.138 16.9981 107.854 16.9981 107.605 16.9981C107.392 16.963 107.144 16.9981 106.931 17.0682C106.718 17.1383 106.505 17.2434 106.327 17.4186C106.15 17.5588 106.008 17.7691 105.937 17.9794C105.83 18.1897 105.795 18.3999 105.795 18.6453V22.7457H104.41V15.7714Z" fill="white"/>
<path d="M109.664 23.3771H111.084C111.19 23.8678 111.794 24.2182 112.717 24.2182C113.889 24.2182 114.563 23.6925 114.563 22.7463V21.4145H114.457C114.244 21.8 113.924 22.0804 113.533 22.2907C113.143 22.501 112.717 22.6061 112.291 22.5711C110.48 22.5711 109.38 21.2042 109.38 19.1365C109.38 17.0337 110.516 15.6318 112.326 15.6318C112.788 15.6318 113.214 15.737 113.604 15.9473C113.995 16.1575 114.315 16.473 114.528 16.8585H114.634V15.737H115.983V22.7112C115.983 24.2883 114.705 25.3047 112.717 25.3047C110.942 25.3397 109.806 24.5687 109.664 23.3771ZM114.599 19.1365C114.599 17.7697 113.889 16.8585 112.681 16.8585C111.474 16.8585 110.8 17.7346 110.8 19.1365C110.8 20.5033 111.474 21.4145 112.681 21.4145C113.889 21.4145 114.599 20.5033 114.599 19.1365Z" fill="white"/>
<path d="M124.149 20.8181C123.971 21.449 123.545 22.0097 122.977 22.3602C122.409 22.7106 121.735 22.8859 121.06 22.8158C120.598 22.8158 120.137 22.7457 119.711 22.5705C119.285 22.3952 118.894 22.1149 118.575 21.7644C118.255 21.4139 118.042 21.0284 117.9 20.5728C117.758 20.1522 117.723 19.6616 117.794 19.241C117.723 18.7854 117.758 18.3298 117.9 17.8742C118.042 17.4537 118.255 17.0331 118.575 16.6826C118.894 16.3322 119.249 16.0518 119.675 15.8766C120.101 15.7013 120.563 15.5962 121.025 15.5962C122.977 15.5962 124.184 16.928 124.184 19.1008V19.5915H119.214V19.6616C119.178 19.9069 119.214 20.1873 119.32 20.3976C119.391 20.6429 119.533 20.8532 119.711 21.0635C119.888 21.2387 120.101 21.4139 120.35 21.484C120.598 21.5892 120.847 21.6242 121.096 21.6242C121.415 21.6592 121.77 21.5892 122.054 21.449C122.338 21.3088 122.587 21.0635 122.764 20.7831H124.149V20.8181ZM119.249 18.5751H122.8C122.8 18.3298 122.8 18.1195 122.693 17.8742C122.622 17.6639 122.48 17.4537 122.338 17.2784C122.161 17.1032 121.983 16.963 121.77 16.8929C121.557 16.7878 121.309 16.7527 121.06 16.7527C120.812 16.7527 120.563 16.7878 120.35 16.8929C120.137 16.9981 119.924 17.1032 119.746 17.2784C119.569 17.4537 119.427 17.6289 119.356 17.8742C119.285 18.1195 119.249 18.3298 119.249 18.5751Z" fill="white"/>
<path d="M126.101 15.7714H127.45V16.8228H127.557C127.699 16.4373 127.983 16.157 128.302 15.9467C128.657 15.7364 129.048 15.6313 129.438 15.6663C129.651 15.6663 129.864 15.6663 130.077 15.7364V17.0682C129.829 16.9981 129.545 16.9981 129.296 16.9981C129.083 16.963 128.835 16.9981 128.622 17.0682C128.409 17.1383 128.196 17.2434 128.018 17.4186C127.841 17.5588 127.699 17.7691 127.628 17.9794C127.521 18.1897 127.486 18.3999 127.486 18.6453V22.7457H126.101V15.7714Z" fill="white"/>
<path d="M135.12 19.2058C135.12 17.0329 136.256 15.631 138.066 15.631C138.492 15.596 138.954 15.7011 139.344 15.9465C139.735 16.1567 140.055 16.4722 140.232 16.8577H140.339V13.0376H141.723V22.6754H140.374V21.589H140.232C140.019 21.9745 139.7 22.2899 139.309 22.5002C138.918 22.7104 138.492 22.8156 138.031 22.8156C136.22 22.7805 135.12 21.4137 135.12 19.2058ZM136.54 19.2058C136.54 20.6777 137.25 21.5539 138.421 21.5539C139.593 21.5539 140.339 20.6427 140.339 19.2058C140.339 17.7689 139.593 16.8577 138.421 16.8577C137.25 16.8577 136.54 17.7689 136.54 19.2058Z" fill="white"/>
<path d="M143.568 20.713C143.568 19.4513 144.527 18.7504 146.195 18.6452L148.112 18.5401V17.9443C148.112 17.2083 147.615 16.7878 146.657 16.7878C145.876 16.7878 145.343 17.0681 145.201 17.5588H143.852C143.994 16.3672 145.13 15.5962 146.728 15.5962C148.503 15.5962 149.497 16.4724 149.497 17.9093V22.6406H148.148V21.6592H148.041C147.828 22.0097 147.509 22.2901 147.118 22.5004C146.763 22.6756 146.337 22.7807 145.911 22.7457C145.627 22.7807 145.308 22.7457 145.024 22.6406C144.74 22.5354 144.491 22.3952 144.243 22.22C144.03 22.0097 143.852 21.7994 143.71 21.5191C143.639 21.3088 143.568 21.0284 143.568 20.713ZM148.112 20.1172V19.5214L146.373 19.6265C145.414 19.6966 144.953 20.0121 144.953 20.6429C144.953 21.2737 145.521 21.6242 146.266 21.6242C146.479 21.6592 146.728 21.6242 146.941 21.5541C147.154 21.484 147.367 21.3789 147.509 21.2387C147.686 21.0985 147.828 20.9233 147.935 20.713C148.041 20.5728 148.112 20.3625 148.112 20.1172Z" fill="white"/>
<path d="M151.664 15.7714H153.013V16.8578H153.12C153.297 16.4723 153.581 16.1218 153.972 15.9116C154.362 15.7013 154.788 15.5961 155.214 15.6312C155.569 15.5961 155.889 15.6662 156.208 15.7714C156.528 15.9116 156.812 16.0868 157.06 16.3321C157.309 16.5774 157.486 16.8929 157.557 17.2083C157.664 17.5237 157.699 17.8742 157.628 18.1896V22.6755H156.244V18.5401C156.244 17.4186 155.747 16.8578 154.717 16.8578C154.469 16.8578 154.256 16.8929 154.043 16.963C153.83 17.033 153.617 17.1732 153.475 17.3485C153.297 17.5237 153.191 17.6989 153.12 17.9443C153.049 18.1545 153.013 18.3999 153.049 18.6101V22.6755H151.664V15.7714Z" fill="white"/>
<path d="M162.419 15.6318C164.017 15.6318 165.047 16.3678 165.189 17.5944H163.84C163.698 17.0687 163.2 16.7533 162.419 16.7533C161.638 16.7533 161.035 17.1038 161.035 17.6645C161.035 18.0851 161.39 18.3304 162.171 18.5057L163.342 18.786C164.692 19.1014 165.331 19.6622 165.331 20.6785C165.331 21.9753 164.088 22.8514 162.419 22.8514C160.751 22.8514 159.65 22.1155 159.508 20.8888H160.893C160.999 21.1692 161.212 21.4145 161.496 21.5898C161.78 21.7299 162.1 21.8 162.419 21.765C163.271 21.765 163.911 21.3795 163.911 20.8187C163.911 20.3982 163.591 20.1528 162.881 19.9776L161.638 19.6972C160.289 19.3818 159.686 18.786 159.686 17.7697C159.65 16.473 160.822 15.6318 162.419 15.6318Z" fill="white"/>
<path d="M55.1694 27.8623H58.0805V46.9627H55.1694V27.8623Z" fill="white"/>
<path d="M61.5943 34.8366L63.1919 27.8623H66.032L64.115 34.8366H61.5943Z" fill="white"/>
<path d="M77.0392 41.8108H69.6193L67.8442 46.9627H64.6846L71.7139 27.8623H74.9801L82.0094 46.9627H78.8142L77.0392 41.8108ZM70.3648 39.4277H76.2581L73.347 31.0515H73.276L70.3648 39.4277Z" fill="white"/>
<path d="M97.1689 39.9889C97.1689 44.2996 94.8258 47.1033 91.2401 47.1033C90.3526 47.1384 89.4296 46.9631 88.6485 46.5075C87.8675 46.087 87.193 45.4211 86.7669 44.6501H86.6959V51.5542H83.7848V33.0146H86.5894V35.3277H86.6604C87.122 34.5566 87.761 33.9258 88.5775 33.4702C89.3586 33.0496 90.2816 32.8394 91.1691 32.8394C94.8258 32.8744 97.1689 35.6781 97.1689 39.9889ZM94.1868 39.9889C94.1868 37.1851 92.6957 35.3277 90.4236 35.3277C88.187 35.3277 86.6959 37.2202 86.6959 39.9889C86.6959 42.7926 88.187 44.6851 90.4236 44.6851C92.6957 44.6851 94.1868 42.8276 94.1868 39.9889Z" fill="white"/>
<path d="M112.788 39.9889C112.788 44.2996 110.445 47.1033 106.86 47.1033C105.972 47.1384 105.049 46.9631 104.268 46.5075C103.487 46.087 102.812 45.4211 102.386 44.6501H102.315V51.5542H99.4042V33.0146H102.209V35.3277H102.28C102.741 34.5566 103.38 33.9258 104.197 33.4702C104.978 33.0496 105.901 32.8394 106.789 32.8394C110.41 32.8744 112.788 35.6781 112.788 39.9889ZM109.806 39.9889C109.806 37.1851 108.315 35.3277 106.043 35.3277C103.806 35.3277 102.315 37.2202 102.315 39.9889C102.315 42.7926 103.806 44.6851 106.043 44.6851C108.315 44.6851 109.806 42.8276 109.806 39.9889Z" fill="white"/>
<path d="M123.12 41.6351C123.333 43.5276 125.214 44.7893 127.77 44.7893C130.22 44.7893 131.995 43.5627 131.995 41.8454C131.995 40.3734 130.93 39.4622 128.409 38.8664L125.889 38.2706C122.303 37.4295 120.67 35.7823 120.67 33.1188C120.67 29.8244 123.581 27.5464 127.735 27.5464C131.853 27.5464 134.658 29.8244 134.764 33.1188H131.817C131.64 31.2263 130.042 30.0697 127.699 30.0697C125.356 30.0697 123.759 31.2263 123.759 32.9436C123.759 34.3104 124.788 35.0814 127.309 35.7122L129.439 36.2379C133.415 37.1491 135.084 38.7262 135.084 41.53C135.084 45.1047 132.173 47.3477 127.557 47.3477C123.226 47.3477 120.315 45.1748 120.137 41.7052H123.12V41.6351Z" fill="white"/>
<path d="M141.367 29.7197V33.0141H144.066V35.2921H141.367V42.9673C141.367 44.1589 141.9 44.7197 143.107 44.7197C143.426 44.7197 143.746 44.6846 144.066 44.6496V46.8925C143.533 46.9977 143 47.0327 142.432 47.0327C139.557 47.0327 138.456 45.9813 138.456 43.2828V35.2921H136.397V33.0141H138.456V29.7197H141.367Z" fill="white"/>
<path d="M145.628 39.9889C145.628 35.608 148.255 32.8394 152.373 32.8394C156.491 32.8394 159.118 35.608 159.118 39.9889C159.118 44.3697 156.527 47.1384 152.373 47.1384C148.219 47.1384 145.628 44.4047 145.628 39.9889ZM156.101 39.9889C156.101 36.9749 154.681 35.2225 152.337 35.2225C149.959 35.2225 148.574 37.0099 148.574 39.9889C148.574 43.0029 149.959 44.7552 152.337 44.7552C154.716 44.7902 156.101 43.0029 156.101 39.9889Z" fill="white"/>
<path d="M161.497 33.0146H164.267V35.3978H164.338C164.515 34.6618 164.977 33.9959 165.58 33.5403C166.219 33.0847 166.965 32.8394 167.746 32.8744C168.065 32.8744 168.42 32.9094 168.74 32.9795V35.6431C168.314 35.5029 167.888 35.4678 167.426 35.4678C167 35.4678 166.574 35.5379 166.184 35.6781C165.793 35.8534 165.438 36.0636 165.154 36.3791C164.87 36.6945 164.657 37.0449 164.515 37.4304C164.373 37.816 164.338 38.2365 164.373 38.6571V46.9281H161.462V33.0146H161.497Z" fill="white"/>
<path d="M182.161 42.8628C181.77 45.3861 179.25 47.1385 176.054 47.1385C171.936 47.1385 169.38 44.4399 169.38 40.0591C169.38 35.6782 171.972 32.8745 175.948 32.8745C179.889 32.8745 182.338 35.5381 182.338 39.7436V40.7249H172.327V40.9002C172.291 41.4259 172.362 41.9165 172.504 42.4072C172.682 42.8978 172.966 43.3534 173.321 43.7039C173.676 44.0544 174.137 44.3698 174.599 44.5801C175.096 44.7903 175.593 44.8604 176.125 44.8604C176.8 44.9305 177.51 44.7553 178.078 44.4048C178.646 44.0544 179.143 43.5287 179.392 42.8978H182.161V42.8628ZM172.327 38.7273H179.427C179.463 38.2717 179.392 37.8161 179.214 37.3605C179.037 36.9399 178.788 36.5194 178.469 36.2039C178.149 35.8885 177.759 35.6081 177.297 35.4329C176.871 35.2577 176.409 35.1876 175.912 35.1876C175.451 35.1876 174.954 35.2577 174.528 35.468C174.102 35.6432 173.676 35.8885 173.356 36.239C173.037 36.5544 172.753 36.975 172.575 37.3955C172.433 37.781 172.327 38.2366 172.327 38.7273Z" fill="white"/>
<path d="M407.281 0.0397111H236.798C236.235 0.0397111 235.632 0.0397111 235.069 0.0397111C234.586 0.0397111 234.103 0.0397111 233.621 0.0397111C232.575 0.0397111 231.489 0.158845 230.443 0.317691C229.397 0.476536 228.391 0.833938 227.426 1.31047C226.46 1.78701 225.615 2.42239 224.851 3.1372C224.087 3.89171 223.443 4.72565 223.001 5.67872C222.518 6.59208 222.196 7.62458 221.995 8.65707C221.834 9.68956 221.713 10.7221 221.713 11.7546C221.713 12.2311 221.713 12.7076 221.673 13.1842V49.1626C221.673 49.6392 221.673 50.1157 221.713 50.5922C221.713 51.6247 221.834 52.6969 221.995 53.6897C222.156 54.7222 222.518 55.715 223.001 56.6681C223.483 57.5814 224.127 58.4551 224.851 59.1699C225.615 59.9244 226.46 60.5201 227.426 60.9966C228.391 61.4731 229.397 61.7908 230.443 61.9894C231.489 62.1482 232.575 62.2674 233.621 62.2674C234.103 62.2674 234.586 62.2674 235.069 62.2674C235.632 62.2674 236.235 62.2674 236.798 62.2674H407.281C407.844 62.2674 408.447 62.2674 409.011 62.2674C409.493 62.2674 409.976 62.2674 410.459 62.2674C411.505 62.2674 412.591 62.1482 413.637 61.9894C414.683 61.8305 415.728 61.4731 416.654 60.9966C417.619 60.5201 418.464 59.8847 419.228 59.1699C419.993 58.4154 420.636 57.5814 421.119 56.6681C421.602 55.715 421.923 54.7222 422.084 53.6897C422.245 52.6572 422.366 51.6247 422.366 50.5922C422.366 50.1157 422.366 49.6392 422.366 49.1626C422.366 48.6067 422.366 48.0507 422.366 47.455V14.852C422.366 14.2961 422.366 13.7004 422.366 13.1445C422.366 12.6679 422.366 12.1914 422.366 11.7148C422.366 10.6823 422.245 9.61014 422.084 8.61736C421.923 7.58486 421.561 6.59208 421.119 5.63901C420.153 3.77258 418.585 2.22383 416.694 1.27076C415.729 0.794227 414.723 0.476536 413.677 0.277979C412.631 0.119134 411.585 0 410.499 0C410.016 0 409.534 0 409.051 0C408.407 0.0397113 407.844 0.0397111 407.281 0.0397111Z" fill="#A6A6A6"/>
<path d="M235.068 60.9573C234.585 60.9573 234.103 60.9573 233.62 60.9573C232.614 60.9573 231.649 60.8779 230.643 60.719C229.718 60.5602 228.833 60.2822 228.028 59.8851C227.224 59.488 226.46 58.932 225.816 58.2966C225.172 57.6613 224.609 56.9465 224.207 56.1125C223.805 55.3183 223.483 54.4446 223.362 53.5313C223.201 52.5782 223.121 51.5854 223.081 50.5926C223.081 50.275 223.04 49.163 223.04 49.163V13.1846C223.04 13.1846 223.04 12.1124 223.081 11.7947C223.081 10.8019 223.161 9.84882 223.362 8.89575C223.523 7.98239 223.805 7.10874 224.207 6.31451C224.609 5.52028 225.172 4.76577 225.816 4.13039C226.46 3.495 227.224 2.93905 228.028 2.54193C228.873 2.14482 229.758 1.82713 230.643 1.70799C231.609 1.54915 232.614 1.46973 233.62 1.46973H235.068H408.97H410.418C411.424 1.46973 412.389 1.54915 413.354 1.70799C414.28 1.86684 415.165 2.14482 416.009 2.54193C417.659 3.37587 418.986 4.68635 419.831 6.31451C420.233 7.10874 420.515 7.98239 420.676 8.89575C420.837 9.84882 420.917 10.8416 420.957 11.8344C420.957 12.2712 420.957 12.7477 420.957 13.2243C420.957 13.82 420.957 14.3759 420.957 14.9319V47.5349C420.957 48.0908 420.957 48.6468 420.957 49.2028C420.957 49.719 420.957 50.1558 420.957 50.6324C420.957 51.5854 420.837 52.5782 420.676 53.5313C420.515 54.4446 420.233 55.3183 419.831 56.1125C419.429 56.9068 418.866 57.6216 418.222 58.2569C417.578 58.8923 416.814 59.4483 416.009 59.8454C415.165 60.2425 414.28 60.5602 413.354 60.719C412.389 60.8779 411.383 60.9573 410.378 60.9573C409.895 60.9573 409.412 60.9573 408.97 60.9573H407.24H235.068Z" fill="black"/>
<path d="M252.571 31.1349L239.738 18.4272L256.07 27.68L252.571 31.1349Z" fill="#00F076"/>
<path d="M236.397 17.7124C235.633 18.1095 235.15 18.8243 235.15 19.7377V45.0735C235.15 45.9869 235.673 46.7017 236.397 47.0988L251.322 32.4056L236.397 17.7124Z" fill="#00D6FF"/>
<path d="M261.139 30.6587L257.72 28.7129L253.898 32.406L257.72 36.0992L261.22 34.1533C262.225 33.3194 262.225 31.453 261.139 30.6587Z" fill="#FFC200"/>
<path d="M239.738 46.3453L256.07 37.0926L252.571 33.6377L239.738 46.3453Z" fill="#FB3746"/>
<path d="M284.831 38.2424H292.956C292.997 38.441 293.037 38.6395 293.037 38.8778C293.077 39.116 293.077 39.3146 293.077 39.5926C293.077 40.5854 292.916 41.5384 292.594 42.5312C292.273 43.4843 291.75 44.3579 291.026 45.1125C290.261 45.9067 289.376 46.5024 288.33 46.9392C287.325 47.376 286.118 47.5746 284.831 47.5746C283.624 47.5746 282.497 47.376 281.451 46.9392C280.406 46.5024 279.48 45.9067 278.676 45.1522C277.871 44.3977 277.268 43.4843 276.785 42.4121C276.343 41.3796 276.101 40.228 276.101 38.9572C276.101 37.7262 276.343 36.5745 276.785 35.5023C277.228 34.4698 277.871 33.5565 278.676 32.7622C279.48 32.0077 280.406 31.4121 281.451 30.9752C282.497 30.5384 283.624 30.3398 284.831 30.3398C286.118 30.3398 287.284 30.5781 288.371 31.0149C289.457 31.4518 290.342 32.0871 291.066 32.8814L289.215 34.7081C288.652 34.1124 288.049 33.6359 287.284 33.3182C286.56 33.0005 285.716 32.8417 284.79 32.8417C283.986 32.8417 283.221 33.0005 282.497 33.2785C281.773 33.5565 281.13 33.9933 280.566 34.5095C280.003 35.0258 279.561 35.6612 279.239 36.4157C278.917 37.1702 278.756 38.0041 278.756 38.9572C278.756 39.9103 278.917 40.7442 279.239 41.4987C279.561 42.2532 280.003 42.8886 280.566 43.4049C281.13 43.9211 281.773 44.3579 282.497 44.6359C283.221 44.9139 283.986 45.0727 284.79 45.0727C285.876 45.0727 286.721 44.9139 287.405 44.5962C288.049 44.2785 288.612 43.8814 289.054 43.4843C289.376 43.1666 289.658 42.7695 289.899 42.293C290.14 41.7767 290.301 41.2605 290.382 40.6648H284.75V38.2424H284.831Z" fill="white"/>
<path d="M300.518 35.542C301.403 35.542 302.167 35.7008 302.931 35.9788C303.655 36.2965 304.299 36.6936 304.822 37.2496C305.345 37.8055 305.747 38.4409 306.069 39.1557C306.351 39.9102 306.512 40.7045 306.512 41.5384C306.512 42.4121 306.351 43.2063 306.069 43.9211C305.788 44.6756 305.345 45.311 304.822 45.8272C304.299 46.3832 303.655 46.7803 302.931 47.098C302.207 47.4157 301.403 47.5348 300.518 47.5348C299.633 47.5348 298.868 47.376 298.104 47.098C297.38 46.7803 296.736 46.3832 296.213 45.8272C295.691 45.311 295.288 44.6359 294.966 43.9211C294.685 43.1666 294.524 42.3723 294.524 41.5384C294.524 40.6648 294.685 39.8705 294.966 39.1557C295.248 38.4012 295.691 37.7658 296.213 37.2496C296.736 36.6936 297.38 36.2965 298.104 35.9788C298.868 35.7008 299.633 35.542 300.518 35.542ZM300.518 45.1521C300.96 45.1521 301.363 45.0727 301.765 44.9139C302.167 44.755 302.529 44.5168 302.851 44.1991C303.173 43.8814 303.414 43.524 303.615 43.0474C303.816 42.6106 303.897 42.0944 303.897 41.5384C303.897 40.9824 303.816 40.4662 303.615 40.0294C303.414 39.5925 303.173 39.1954 302.851 38.8777C302.529 38.5601 302.167 38.3218 301.765 38.1629C301.363 38.0041 300.96 37.9247 300.518 37.9247C300.075 37.9247 299.673 38.0041 299.271 38.1629C298.868 38.3218 298.506 38.5601 298.185 38.8777C297.863 39.1954 297.621 39.5528 297.42 40.0294C297.219 40.4662 297.139 40.9824 297.139 41.5384C297.139 42.0944 297.219 42.6106 297.42 43.0474C297.621 43.4843 297.863 43.8814 298.185 44.1991C298.506 44.5168 298.868 44.755 299.271 44.9139C299.673 45.0727 300.075 45.1521 300.518 45.1521Z" fill="white"/>
<path d="M313.753 35.542C314.638 35.542 315.402 35.7008 316.167 35.9788C316.891 36.2965 317.534 36.6936 318.057 37.2496C318.58 37.8055 318.982 38.4409 319.304 39.1557C319.586 39.9102 319.747 40.7045 319.747 41.5384C319.747 42.4121 319.586 43.2063 319.304 43.9211C319.023 44.6756 318.58 45.311 318.057 45.8272C317.534 46.3832 316.891 46.7803 316.167 47.098C315.442 47.4157 314.638 47.5348 313.753 47.5348C312.868 47.5348 312.104 47.376 311.339 47.098C310.615 46.7803 309.972 46.3832 309.449 45.8272C308.926 45.311 308.523 44.6359 308.202 43.9211C307.92 43.1666 307.759 42.3723 307.759 41.5384C307.759 40.6648 307.92 39.8705 308.202 39.1557C308.483 38.4012 308.926 37.7658 309.449 37.2496C309.972 36.6936 310.615 36.2965 311.339 35.9788C312.063 35.7008 312.868 35.542 313.753 35.542ZM313.753 45.1521C314.195 45.1521 314.598 45.0727 315 44.9139C315.402 44.755 315.764 44.5168 316.086 44.1991C316.408 43.8814 316.649 43.524 316.85 43.0474C317.051 42.6106 317.132 42.0944 317.132 41.5384C317.132 40.9824 317.051 40.4662 316.85 40.0294C316.649 39.5925 316.408 39.1954 316.086 38.8777C315.764 38.5601 315.402 38.3218 315 38.1629C314.598 38.0041 314.195 37.9247 313.753 37.9247C313.31 37.9247 312.908 38.0041 312.506 38.1629C312.104 38.3218 311.742 38.5601 311.42 38.8777C311.098 39.1954 310.857 39.5528 310.655 40.0294C310.454 40.4662 310.374 40.9824 310.374 41.5384C310.374 42.0944 310.454 42.6106 310.655 43.0474C310.857 43.4843 311.098 43.8814 311.42 44.1991C311.742 44.5168 312.104 44.755 312.506 44.9139C312.908 45.0727 313.31 45.1521 313.753 45.1521Z" fill="white"/>
<path d="M326.826 52.4986C326.021 52.4986 325.338 52.3794 324.734 52.1809C324.131 51.9823 323.608 51.7043 323.125 51.3867C322.683 51.069 322.321 50.7116 322.039 50.3144C321.757 49.9173 321.556 49.5202 321.395 49.1628L323.849 48.17C324.05 48.7657 324.453 49.2422 324.976 49.6394C325.499 49.9968 326.142 50.1953 326.826 50.1953C327.912 50.1953 328.717 49.8776 329.32 49.282C329.923 48.6466 330.205 47.8126 330.205 46.7007V45.7874H330.084C329.722 46.3036 329.24 46.7007 328.596 47.0581C327.952 47.3758 327.228 47.5744 326.384 47.5744C325.7 47.5744 325.016 47.4155 324.372 47.1375C323.729 46.8596 323.125 46.4227 322.642 45.9065C322.119 45.3902 321.757 44.7549 321.436 44.0003C321.154 43.2458 320.993 42.4516 320.993 41.578C320.993 40.7043 321.154 39.8704 321.436 39.1556C321.717 38.4408 322.119 37.8054 322.642 37.2494C323.165 36.7332 323.729 36.2963 324.372 36.0184C325.016 35.7404 325.7 35.5815 326.384 35.5815C327.228 35.5815 327.952 35.7404 328.596 36.0978C329.24 36.4155 329.722 36.8523 330.084 37.3686H330.205V35.9787H332.699V46.5816C332.699 47.5347 332.538 48.4083 332.257 49.1628C331.935 49.9173 331.533 50.513 331.01 51.0293C330.487 51.5455 329.883 51.9029 329.159 52.1809C328.435 52.3794 327.671 52.4986 326.826 52.4986ZM326.906 45.152C327.309 45.152 327.751 45.0726 328.153 44.9137C328.556 44.7549 328.918 44.5166 329.199 44.1989C329.521 43.8812 329.763 43.5238 329.923 43.0473C330.125 42.6104 330.205 42.0942 330.205 41.4985C330.205 40.9426 330.125 40.3866 329.923 39.9498C329.722 39.4733 329.481 39.1159 329.199 38.7982C328.878 38.4805 328.556 38.2422 328.153 38.0834C327.751 37.9245 327.349 37.8451 326.906 37.8451C326.464 37.8451 326.062 37.9245 325.659 38.0834C325.257 38.2422 324.895 38.4805 324.614 38.7982C324.292 39.1159 324.05 39.4733 323.849 39.9498C323.648 40.3866 323.568 40.9029 323.568 41.4985C323.568 42.0942 323.648 42.5707 323.849 43.0473C324.05 43.4841 324.292 43.8812 324.614 44.1989C324.935 44.5166 325.257 44.7549 325.659 44.9137C326.062 45.0726 326.504 45.152 326.906 45.152Z" fill="white"/>
<path d="M335.314 47.178V30.6978H337.889V47.1382H335.314V47.178Z" fill="white"/>
<path d="M350.961 44.477C350.478 45.3507 349.794 46.0655 348.909 46.6612C348.024 47.2568 346.938 47.5348 345.651 47.5348C344.806 47.5348 344.002 47.376 343.278 47.098C342.554 46.7803 341.95 46.3832 341.387 45.8272C340.864 45.311 340.462 44.6756 340.14 43.9211C339.858 43.2063 339.697 42.4121 339.697 41.5384C339.697 40.7442 339.818 39.9499 340.1 39.2351C340.381 38.5203 340.784 37.885 341.266 37.329C341.789 36.773 342.393 36.3362 343.077 36.0185C343.801 35.7008 344.565 35.542 345.45 35.542C346.335 35.542 347.139 35.7008 347.823 35.9788C348.507 36.2568 349.111 36.6936 349.593 37.2099C350.076 37.7261 350.438 38.3615 350.679 39.0763C350.921 39.8308 351.082 40.625 351.082 41.4987C351.082 41.5781 351.082 41.6575 351.082 41.6972C351.082 41.7767 351.041 41.8561 351.041 41.8958C351.041 41.9752 351.001 42.0149 351.001 42.0944H342.232C342.272 42.6503 342.393 43.0871 342.634 43.4843C342.835 43.8814 343.117 44.1991 343.439 44.477C343.76 44.755 344.122 44.9139 344.485 45.033C344.887 45.1521 345.249 45.2316 345.611 45.2316C346.375 45.2316 346.979 45.0727 347.461 44.7153C347.944 44.3579 348.346 43.9211 348.668 43.4048L350.961 44.477ZM348.588 40.1485C348.547 39.9102 348.467 39.672 348.346 39.394C348.226 39.116 348.065 38.838 347.823 38.5998C347.582 38.3615 347.26 38.1629 346.898 38.0041C346.536 37.8452 346.053 37.7658 345.53 37.7658C344.766 37.7658 344.163 38.0041 343.599 38.4012C343.077 38.838 342.715 39.4337 342.513 40.1485H348.588Z" fill="white"/>
<path d="M358.606 47.178V30.6978H364.399C365.163 30.6978 365.847 30.8169 366.491 31.0552C367.134 31.2934 367.738 31.6508 368.22 32.0876C368.703 32.5245 369.105 33.0804 369.387 33.6761C369.669 34.3115 369.829 34.9866 369.829 35.7411C369.829 36.4956 369.669 37.1707 369.387 37.7664C369.105 38.4018 368.703 38.918 368.22 39.3548C367.738 39.7916 367.134 40.149 366.491 40.3873C365.847 40.6256 365.123 40.7447 364.399 40.7447H361.261V47.0985H358.606V47.178ZM364.439 38.3223C364.882 38.3223 365.244 38.2429 365.606 38.0841C365.927 37.9252 366.249 37.7267 366.45 37.4884C366.692 37.2501 366.853 36.9721 366.973 36.6545C367.094 36.3368 367.174 36.0588 367.174 35.7411C367.174 35.4234 367.094 35.1057 366.973 34.788C366.853 34.4703 366.652 34.1924 366.45 33.9541C366.209 33.7158 365.927 33.5173 365.606 33.3584C365.284 33.1996 364.882 33.1201 364.439 33.1201H361.221V38.2429H364.439V38.3223Z" fill="white"/>
<path d="M371.799 47.178V30.6978H374.374V47.1382H371.799V47.178Z" fill="white"/>
<path d="M384.109 45.7877H383.989C383.667 46.2245 383.224 46.6216 382.661 46.979C382.098 47.3364 381.414 47.535 380.569 47.535C379.966 47.535 379.403 47.4556 378.88 47.257C378.357 47.0584 377.874 46.7805 377.512 46.4628C377.15 46.1451 376.828 45.7083 376.587 45.2317C376.345 44.7552 376.265 44.2389 376.265 43.683C376.265 43.0873 376.386 42.5313 376.627 42.0548C376.868 41.5783 377.19 41.1812 377.633 40.8635C378.075 40.5458 378.558 40.3075 379.161 40.109C379.765 39.9501 380.368 39.831 381.052 39.831C381.816 39.831 382.46 39.9104 382.943 40.0692C383.425 40.2281 383.828 40.3472 384.109 40.4664V40.0295C384.109 39.7118 384.029 39.3942 383.868 39.0765C383.707 38.7985 383.506 38.5205 383.264 38.3219C383.023 38.1234 382.701 37.9645 382.379 37.8454C382.058 37.7263 381.696 37.6866 381.374 37.6866C380.811 37.6866 380.288 37.8057 379.845 38.0043C379.403 38.2425 378.96 38.5999 378.638 39.0765L376.587 37.7263C377.15 36.9718 377.794 36.4555 378.598 36.0584C379.403 35.701 380.328 35.5024 381.334 35.5024C383.023 35.5024 384.351 35.8996 385.276 36.7335C386.201 37.5674 386.644 38.7588 386.644 40.2678V47.0981H384.109V45.7877ZM384.109 42.4916C383.787 42.2931 383.385 42.1342 382.983 42.0151C382.581 41.896 382.098 41.8165 381.535 41.8165C380.73 41.8165 380.087 42.0151 379.604 42.3725C379.121 42.7299 378.88 43.1667 378.88 43.7227C378.88 44.0007 378.96 44.2389 379.081 44.4375C379.202 44.636 379.362 44.8346 379.564 44.9934C379.765 45.1523 379.966 45.2714 380.247 45.3509C380.489 45.4303 380.77 45.47 381.012 45.47C381.414 45.47 381.816 45.3906 382.219 45.2317C382.581 45.0729 382.943 44.8743 383.224 44.5963C383.506 44.3184 383.747 44.0007 383.908 43.683C384.029 43.2462 384.109 42.8887 384.109 42.4916Z" fill="white"/>
<path d="M392.357 46.5419L387.61 35.939H390.506L393.644 43.4047H393.765L396.822 35.939H399.678L392.518 52.1809H389.782L392.357 46.5419Z" fill="white"/>
<path d="M278.234 22.6762V14.6943H275.257V13.3838H282.659V14.6943H279.682V22.6762H278.234Z" fill="white"/>
<path d="M289.496 20.7697C289.295 21.4051 288.893 21.961 288.329 22.3185C287.766 22.6759 287.082 22.8347 286.398 22.795C285.916 22.795 285.473 22.7156 285.031 22.517C284.588 22.3185 284.226 22.0802 283.904 21.7228C283.583 21.3654 283.341 20.9683 283.221 20.5314C283.1 20.0946 283.06 19.6181 283.1 19.1813C283.019 18.7047 283.06 18.2679 283.221 17.8311C283.341 17.3942 283.583 16.9971 283.904 16.6397C284.226 16.2823 284.588 16.0043 285.031 15.8455C285.473 15.6469 285.916 15.5675 286.398 15.5675C288.37 15.5675 289.576 16.9177 289.576 19.1018V19.5784H284.548V19.6578C284.508 19.8961 284.548 20.174 284.628 20.4123C284.709 20.6506 284.87 20.8888 285.031 21.0874C285.192 21.286 285.433 21.4448 285.674 21.5242C285.916 21.6434 286.157 21.6831 286.439 21.6831C286.761 21.7228 287.123 21.6434 287.404 21.5242C287.726 21.3654 287.967 21.1271 288.128 20.8491H289.496V20.7697ZM284.548 18.5062H288.168C288.168 18.2679 288.168 18.0296 288.088 17.8311C288.008 17.5928 287.887 17.3942 287.726 17.2354C287.565 17.0766 287.364 16.9177 287.123 16.8383C286.881 16.7589 286.68 16.7192 286.439 16.7192C286.197 16.7192 285.956 16.7589 285.715 16.8383C285.473 16.9177 285.272 17.0766 285.111 17.2354C284.95 17.3942 284.789 17.5928 284.709 17.8311C284.588 18.0296 284.548 18.2679 284.548 18.5062ZM285.554 14.4953L287.203 12.2715H288.852L287.002 14.4953H285.554Z" fill="white"/>
<path d="M291.548 12.9067H292.956V22.636H291.548V12.9067Z" fill="white"/>
<path d="M301.324 20.7697C301.122 21.4051 300.72 21.961 300.157 22.3185C299.594 22.6759 298.91 22.8347 298.226 22.795C297.743 22.795 297.301 22.7156 296.858 22.517C296.416 22.3185 296.054 22.0802 295.732 21.7228C295.41 21.3654 295.169 20.9683 295.048 20.5314C294.927 20.0946 294.887 19.6181 294.927 19.1813C294.847 18.7047 294.887 18.2679 295.048 17.8311C295.169 17.3942 295.41 16.9971 295.732 16.6397C296.054 16.2823 296.416 16.0043 296.858 15.8455C297.301 15.6469 297.743 15.5675 298.226 15.5675C300.197 15.5675 301.404 16.9177 301.404 19.1018V19.5784H296.376V19.6578C296.335 19.8961 296.376 20.174 296.456 20.4123C296.537 20.6506 296.697 20.8888 296.858 21.0874C297.019 21.286 297.261 21.4448 297.502 21.5242C297.743 21.6434 297.985 21.6831 298.266 21.6831C298.588 21.7228 298.95 21.6434 299.232 21.5242C299.554 21.3654 299.795 21.1271 299.956 20.8491H301.324V20.7697ZM296.376 18.5062H299.996C299.996 18.2679 299.996 18.0296 299.916 17.8311C299.835 17.5928 299.714 17.3942 299.554 17.2354C299.393 17.0766 299.191 16.9177 298.95 16.8383C298.709 16.7589 298.508 16.7192 298.266 16.7192C298.025 16.7192 297.784 16.7589 297.542 16.8383C297.301 16.9177 297.1 17.0766 296.939 17.2354C296.778 17.3942 296.617 17.5928 296.536 17.8311C296.416 18.0296 296.376 18.2679 296.376 18.5062ZM297.381 14.4953L299.031 12.2715H300.68L298.829 14.4953H297.381Z" fill="white"/>
<path d="M308.001 17.9496C307.921 17.5922 307.679 17.2745 307.398 17.0362C307.076 16.8377 306.714 16.7185 306.311 16.7582C305.145 16.7582 304.421 17.6319 304.421 19.1409C304.421 20.6499 305.145 21.5633 306.311 21.5633C306.674 21.603 307.076 21.5236 307.357 21.2853C307.679 21.0868 307.88 20.7691 307.961 20.4117H309.329C309.248 21.1265 308.886 21.7619 308.283 22.1987C307.719 22.6355 306.995 22.8738 306.271 22.7944C305.789 22.7944 305.306 22.7149 304.863 22.5561C304.421 22.3575 304.019 22.0795 303.697 21.7619C303.375 21.4045 303.134 21.0073 303.013 20.5705C302.892 20.1337 302.852 19.6572 302.892 19.1806C302.812 18.7041 302.852 18.2673 303.013 17.7907C303.174 17.3539 303.375 16.9568 303.697 16.5994C304.019 16.242 304.421 15.964 304.863 15.8052C305.306 15.6066 305.789 15.5272 306.231 15.5669C306.955 15.4875 307.679 15.7257 308.283 16.1626C308.846 16.5994 309.208 17.2745 309.329 17.9893H308.001V17.9496Z" fill="white"/>
<path d="M311.219 12.9067H312.627V16.7587H312.748C312.949 16.3616 313.23 16.0042 313.632 15.8057C314.035 15.5674 314.477 15.488 314.92 15.5277C315.282 15.5277 315.604 15.5674 315.925 15.6865C316.247 15.8057 316.529 16.0042 316.77 16.2425C317.012 16.4808 317.172 16.7985 317.293 17.1161C317.414 17.4338 317.414 17.7912 317.374 18.1089V22.636H315.966V18.4663C315.966 17.3544 315.443 16.7984 314.437 16.7984C314.196 16.7984 313.954 16.7984 313.713 16.8779C313.472 16.9573 313.27 17.0764 313.11 17.275C312.949 17.4338 312.788 17.6324 312.707 17.8707C312.627 18.1089 312.587 18.3472 312.627 18.5855V22.6757H311.219V12.9067Z" fill="white"/>
<path d="M319.144 20.6898C319.144 19.4191 320.11 18.7042 321.799 18.5851L323.73 18.466V17.8703C323.73 17.1158 323.248 16.7187 322.282 16.7187C321.478 16.7187 320.955 16.9967 320.794 17.5129H319.426C319.587 16.3216 320.713 15.5273 322.363 15.5273C324.173 15.5273 325.179 16.401 325.179 17.8703V22.6754H323.811V21.6826H323.69C323.449 22.04 323.127 22.318 322.765 22.5165C322.403 22.7151 321.96 22.7945 321.558 22.7945C321.276 22.8342 320.955 22.7945 320.673 22.7151C320.391 22.6357 320.11 22.4768 319.909 22.2783C319.667 22.0797 319.507 21.8414 319.386 21.5635C319.225 21.2855 319.144 20.9678 319.144 20.6898ZM323.73 20.0941V19.4985L322.001 19.6176C321.035 19.697 320.552 20.0147 320.552 20.6104C320.552 21.2458 321.116 21.6032 321.88 21.6032C322.121 21.6429 322.322 21.6032 322.564 21.5238C322.765 21.4443 322.966 21.3649 323.167 21.2061C323.328 21.0472 323.489 20.8884 323.569 20.6898C323.65 20.531 323.73 20.2927 323.73 20.0941Z" fill="white"/>
<path d="M327.351 15.6468H328.718V16.719H328.839C329 16.3616 329.241 16.0439 329.603 15.8056C329.965 15.607 330.368 15.4879 330.77 15.5276C330.971 15.5276 331.172 15.5276 331.414 15.5673V16.9572C331.172 16.9175 330.891 16.8778 330.609 16.8778C330.368 16.8381 330.126 16.8778 329.925 16.9572C329.724 17.0367 329.483 17.1558 329.322 17.3146C329.161 17.4735 329 17.672 328.919 17.8706C328.839 18.0692 328.799 18.3074 328.799 18.5457V22.6757H327.391V15.6468H327.351Z" fill="white"/>
<path d="M332.66 23.39H334.108C334.229 23.9063 334.832 24.224 335.758 24.224C336.924 24.224 337.608 23.668 337.608 22.7546V21.4045H337.487C337.286 21.7619 336.924 22.0796 336.562 22.3178C336.16 22.5164 335.717 22.6355 335.275 22.5958C333.465 22.5958 332.338 21.2059 332.338 19.1012C332.338 16.9568 333.465 15.5669 335.315 15.5669C335.758 15.5669 336.2 15.6463 336.602 15.8846C337.005 16.1229 337.326 16.4405 337.568 16.7979H337.689V15.686H339.056V22.7546C339.056 24.3431 337.769 25.3756 335.758 25.3756C333.988 25.3359 332.821 24.5814 332.66 23.39ZM337.689 19.0615C337.689 17.6716 336.964 16.7582 335.758 16.7582C334.551 16.7582 333.867 17.6716 333.867 19.0615C333.867 20.4514 334.551 21.3648 335.758 21.3648C336.964 21.3648 337.689 20.4911 337.689 19.0615Z" fill="white"/>
<path d="M347.344 20.7691C347.143 21.4045 346.74 21.9604 346.177 22.3178C345.614 22.6752 344.93 22.8341 344.246 22.7944C343.763 22.7944 343.321 22.7149 342.879 22.5164C342.436 22.3178 342.074 22.0796 341.752 21.7221C341.43 21.3647 341.189 20.9676 341.068 20.5308C340.948 20.094 340.907 19.6174 340.948 19.1806C340.867 18.7041 340.907 18.2673 341.068 17.8304C341.189 17.3936 341.43 16.9965 341.752 16.6391C342.074 16.2817 342.436 16.0037 342.879 15.8449C343.321 15.6463 343.763 15.5669 344.246 15.5669C346.217 15.5669 347.424 16.9171 347.424 19.1012V19.5777H342.396V19.6572C342.356 19.8954 342.396 20.1734 342.476 20.4117C342.557 20.6499 342.718 20.8882 342.879 21.0868C343.039 21.2853 343.281 21.4442 343.522 21.5236C343.763 21.6427 344.005 21.6824 344.286 21.6824C344.608 21.7222 344.97 21.6427 345.252 21.5236C345.574 21.3647 345.815 21.1265 345.976 20.8485H347.344V20.7691ZM342.396 18.5055H346.016C346.016 18.2673 346.016 18.029 345.936 17.8304C345.855 17.5922 345.735 17.3936 345.574 17.2348C345.413 17.0759 345.212 16.9171 344.97 16.8377C344.729 16.7582 344.528 16.7185 344.286 16.7185C344.045 16.7185 343.804 16.7582 343.562 16.8377C343.321 16.9171 343.12 17.0759 342.959 17.2348C342.798 17.3936 342.637 17.5922 342.557 17.8304C342.436 18.029 342.396 18.2673 342.396 18.5055Z" fill="white"/>
<path d="M349.316 15.6468H350.683V16.719H350.804C350.965 16.3616 351.206 16.0439 351.568 15.8056C351.93 15.607 352.333 15.4879 352.735 15.5276C352.936 15.5276 353.137 15.5276 353.379 15.5673V16.9572C353.137 16.9175 352.856 16.8778 352.574 16.8778C352.333 16.8381 352.091 16.8778 351.89 16.9572C351.689 17.0367 351.448 17.1558 351.287 17.3146C351.126 17.4735 350.965 17.672 350.884 17.8706C350.804 18.0692 350.764 18.3074 350.764 18.5457V22.6757H349.356V15.6468H349.316Z" fill="white"/>
<path d="M361.142 23.0728C360.659 23.0728 360.257 22.9934 359.895 22.8742C359.533 22.7551 359.211 22.5963 358.929 22.3977C358.648 22.1991 358.407 21.9609 358.205 21.7226C358.004 21.4843 357.884 21.2064 357.763 20.9284L359.332 20.293C359.493 20.7298 359.774 21.0475 360.096 21.2858C360.418 21.4843 360.78 21.6035 361.182 21.6035C361.625 21.6035 361.947 21.5241 362.188 21.3255C362.429 21.1667 362.55 20.9681 362.55 20.7298C362.55 20.5313 362.469 20.3327 362.268 20.1739C362.067 20.015 361.745 19.8562 361.222 19.737L360.136 19.4591C359.895 19.4194 359.654 19.3399 359.412 19.2208C359.171 19.1017 358.929 18.9825 358.728 18.8237C358.527 18.6648 358.366 18.4663 358.205 18.228C358.085 17.9897 358.004 17.7118 358.004 17.3941C358.004 17.0367 358.085 16.719 358.246 16.4013C358.407 16.1233 358.608 15.885 358.889 15.6865C359.171 15.4879 359.493 15.3291 359.855 15.2497C360.217 15.1305 360.619 15.0908 361.021 15.0908C361.343 15.0908 361.705 15.1305 362.027 15.21C362.349 15.2894 362.63 15.3688 362.912 15.5276C363.194 15.6865 363.435 15.8453 363.636 16.0836C363.837 16.3219 363.998 16.5601 364.159 16.8778L362.63 17.5132C362.469 17.1955 362.268 16.9573 361.947 16.7984C361.625 16.6396 361.303 16.5601 360.981 16.5601C360.82 16.5601 360.699 16.5601 360.539 16.5998C360.378 16.6396 360.257 16.6793 360.136 16.7587C360.016 16.8381 359.935 16.9175 359.855 16.997C359.774 17.1161 359.734 17.1955 359.734 17.3147C359.734 17.5132 359.815 17.6721 360.016 17.7912C360.217 17.9103 360.458 18.0295 360.86 18.1089L362.027 18.3869C362.832 18.5854 363.395 18.8634 363.757 19.2605C364.119 19.6576 364.32 20.1342 364.32 20.6504C364.32 20.9681 364.239 21.2858 364.079 21.5638C363.918 21.8417 363.717 22.1197 363.435 22.3183C363.153 22.5565 362.832 22.7154 362.429 22.8345C362.067 22.9934 361.625 23.0728 361.142 23.0728Z" fill="white"/>
<path d="M370.837 21.802H370.756C370.515 22.1594 370.193 22.4771 369.791 22.7154C369.389 22.9537 368.906 23.0728 368.383 23.0728C367.418 23.0728 366.694 22.7948 366.211 22.2389C365.728 21.6829 365.487 20.9284 365.487 19.9753V15.3291H367.216V19.7371C367.216 20.3724 367.377 20.849 367.659 21.127C367.981 21.4049 368.383 21.5241 368.866 21.5241C369.147 21.5241 369.429 21.4446 369.67 21.3255C369.912 21.2064 370.113 21.0475 370.274 20.8093C370.435 20.6107 370.555 20.3724 370.636 20.0945C370.716 19.8165 370.756 19.5385 370.756 19.2605V15.3291H372.486V22.8345H370.837V21.802Z" fill="white"/>
<path d="M374.217 15.3291H375.866V16.4807H375.946C376.027 16.2822 376.148 16.1233 376.308 15.9248C376.469 15.7659 376.671 15.6071 376.872 15.4879C377.073 15.3688 377.274 15.2894 377.515 15.21C377.757 15.1305 377.958 15.0908 378.159 15.0908C378.4 15.0908 378.601 15.1305 378.803 15.1702C378.963 15.21 379.124 15.2894 379.285 15.3688L378.803 16.9175C378.682 16.8778 378.561 16.8381 378.44 16.7984C378.32 16.7587 378.119 16.7587 377.918 16.7587C377.636 16.7587 377.395 16.7984 377.153 16.9175C376.912 17.0367 376.711 17.1955 376.55 17.3941C376.389 17.5926 376.228 17.8309 376.148 18.0692C376.067 18.3471 375.987 18.6251 375.987 18.9031V22.8345H374.257V15.3291H374.217Z" fill="white"/>
</svg>
