<svg width="1211" height="710" viewBox="0 0 1211 710" fill="none" xmlns="http://www.w3.org/2000/svg">
<path fill-rule="evenodd" clip-rule="evenodd" d="M740.206 -310.534C791.602 -397.514 861.436 -455.69 909.724 -472.95L920.831 -441.876C882.017 -428.002 817.481 -376.442 768.617 -293.747C720.208 -211.823 688.249 -101.01 712.111 29.9919C753.883 259.319 914.086 385.89 1085.91 458.061C1242.18 523.7 1405.84 543.355 1494.23 553.972L1494.25 553.973L1494.3 553.98C1503.29 555.06 1511.51 556.047 1518.85 556.978C1526.17 557.906 1533.55 558.685 1540.99 559.327C1599.66 552.724 1649.98 542.23 1678.27 534.572L1684.52 557.643C1752.06 551.391 1811.18 539.291 1842.8 530.734L1851.42 562.588C1796.86 577.353 1663.86 602.379 1541.45 592.478C1481.6 599.036 1413.52 601.589 1350.18 593.554C1342.94 592.636 1334.78 591.658 1325.78 590.581L1325.78 590.58C1305.97 588.207 1282.13 585.351 1255.24 581.584L1262.56 608.649C1204 624.497 1055.06 652.169 925.845 635.777C918.605 634.858 910.441 633.88 901.445 632.803L901.442 632.803C813.238 622.237 645.09 602.095 484.274 534.547C306.66 459.943 135.299 326.322 90.7896 81.9663C68.6577 -39.5387 91.5434 -145.135 131.919 -228.293C120.122 -213.212 108.643 -196.563 97.9189 -178.414C49.5107 -96.4896 17.5517 14.3234 41.4135 145.325C83.185 374.652 243.389 501.223 415.211 573.394C571.484 639.034 735.141 658.689 823.537 669.305L823.54 669.305C832.558 670.388 840.793 671.377 848.156 672.312C909.363 680.076 990.112 676.54 1063.4 668.937C1136.65 661.337 1200.75 649.861 1228.29 642.407L1236.91 674.261C1206.93 682.374 1140.87 694.077 1066.8 701.761C992.763 709.443 909.013 713.296 844.003 705.049C836.764 704.131 828.601 703.153 819.607 702.076L819.603 702.075C731.4 691.51 563.249 671.368 402.432 603.819C224.818 529.216 53.4567 395.595 8.94763 151.239C-16.5328 11.3506 17.6568 -107.45 69.5082 -195.201C110.997 -265.415 164.502 -316.86 208.988 -343.163C248.018 -386.478 289.105 -415.536 320.868 -426.89L331.976 -395.815C309.564 -387.804 278.578 -367.23 246.985 -335.352L250.134 -326.543C244.027 -324.36 237.284 -321.244 230.065 -317.221C212.597 -297.366 195.378 -274.116 179.761 -247.686C131.353 -165.762 99.3937 -54.9489 123.255 76.0527C165.027 305.38 325.231 431.951 497.053 504.122C653.325 569.761 816.982 589.416 905.378 600.033L905.391 600.034L905.442 600.04C914.437 601.12 922.651 602.107 929.998 603.039C1045.58 617.702 1179.66 595.215 1242.45 579.755C1150.77 566.363 1027.68 542.338 908.606 492.324C730.992 417.721 559.631 284.1 515.122 39.7437C489.642 -100.144 523.831 -218.945 575.683 -306.696C627.078 -393.676 696.913 -451.852 745.201 -469.112L756.308 -438.038C717.493 -424.164 652.957 -372.604 604.093 -289.908C555.685 -207.984 523.726 -97.1715 547.588 33.8301C589.36 263.157 749.563 389.728 921.386 461.899C1045.74 514.132 1174.77 537.247 1266.83 549.859C1204.95 535.53 1138.44 515.917 1073.13 488.486C895.515 413.882 724.154 280.261 679.645 35.9055C654.165 -103.982 688.354 -222.783 740.206 -310.534Z" fill="#1B1749" fill-opacity="0.18"/>
</svg>
