<svg width="301" height="200" viewBox="0 0 301 200" fill="none" xmlns="http://www.w3.org/2000/svg">
<path d="M208.258 100.327H92.7457C92.011 100.327 91.4154 100.923 91.4154 101.657V141.842C91.4154 142.577 92.011 143.172 92.7457 143.172H208.258C208.992 143.172 209.588 142.577 209.588 141.842V101.657C209.588 100.923 208.992 100.327 208.258 100.327Z" fill="white"/>
<path d="M140.247 117.308C140.247 117.215 140.148 117.175 140.081 117.165L138.518 116.939L137.82 115.529C137.796 115.472 137.743 115.406 137.67 115.406C137.604 115.406 137.547 115.472 137.52 115.532L136.822 116.945L135.266 117.171C135.189 117.185 135.093 117.221 135.093 117.314C135.093 117.371 135.133 117.424 135.169 117.464L136.3 118.562L136.034 120.115C136.027 120.135 136.027 120.155 136.027 120.175C136.027 120.258 136.07 120.331 136.16 120.331C136.203 120.331 136.243 120.314 136.283 120.298L137.673 119.566L139.07 120.298C139.103 120.314 139.147 120.331 139.19 120.331C139.283 120.331 139.323 120.258 139.323 120.175C139.323 120.155 139.323 120.135 139.316 120.115L139.05 118.565L140.181 117.467C140.214 117.434 140.257 117.378 140.257 117.321L140.247 117.308ZM146.42 117.308C146.42 117.215 146.32 117.175 146.247 117.165L144.691 116.939L143.992 115.529C143.966 115.472 143.916 115.406 143.843 115.406C143.776 115.406 143.723 115.472 143.693 115.532L142.994 116.945L141.441 117.171C141.365 117.185 141.268 117.221 141.268 117.314C141.268 117.371 141.308 117.424 141.345 117.464L142.469 118.562L142.203 120.115L142.196 120.175C142.196 120.258 142.236 120.331 142.329 120.331C142.369 120.331 142.412 120.314 142.452 120.298L143.843 119.566L145.239 120.298C145.273 120.314 145.319 120.331 145.362 120.331C145.452 120.331 145.489 120.258 145.489 120.175V120.115L145.223 118.565L146.333 117.454C146.373 117.421 146.413 117.364 146.413 117.308H146.42ZM152.592 117.308C152.592 117.215 152.493 117.175 152.419 117.165L150.863 116.939L150.165 115.529C150.138 115.472 150.085 115.406 150.015 115.406C149.942 115.406 149.889 115.472 149.862 115.532L149.164 116.945L147.614 117.171C147.534 117.185 147.438 117.221 147.438 117.314C147.438 117.371 147.481 117.424 147.521 117.464L148.651 118.562L148.385 120.115L148.375 120.175C148.375 120.258 148.415 120.331 148.508 120.331C148.548 120.331 148.588 120.314 148.628 120.298L150.025 119.566L151.412 120.298C151.445 120.314 151.492 120.331 151.535 120.331C151.628 120.331 151.668 120.258 151.668 120.175C151.668 120.155 151.668 120.135 151.661 120.115L151.388 118.552L152.513 117.454C152.552 117.421 152.592 117.364 152.592 117.308ZM158.765 117.308C158.765 117.215 158.665 117.175 158.592 117.165L157.035 116.939L156.337 115.529C156.31 115.472 156.257 115.406 156.184 115.406C156.118 115.406 156.061 115.472 156.034 115.532L155.336 116.945L153.78 117.171C153.7 117.185 153.603 117.221 153.603 117.314C153.603 117.371 153.643 117.424 153.68 117.464L154.811 118.562L154.545 120.115C154.538 120.135 154.538 120.155 154.538 120.175C154.538 120.258 154.578 120.331 154.671 120.331C154.711 120.331 154.751 120.314 154.791 120.298L156.181 119.566L157.578 120.298C157.611 120.314 157.654 120.331 157.697 120.331C157.787 120.331 157.824 120.258 157.824 120.175V120.115L157.558 118.565L158.682 117.467C158.722 117.434 158.762 117.378 158.762 117.321L158.765 117.308ZM164.934 117.308C164.934 117.215 164.834 117.175 164.761 117.165L163.208 116.939L162.51 115.529C162.483 115.472 162.433 115.406 162.36 115.406C162.293 115.406 162.237 115.472 162.207 115.532L161.509 116.945L159.955 117.171C159.879 117.185 159.782 117.221 159.782 117.314C159.782 117.371 159.822 117.424 159.859 117.464L160.99 118.562L160.724 120.115L160.714 120.175C160.714 120.258 160.754 120.331 160.847 120.331C160.887 120.331 160.93 120.314 160.97 120.298L162.36 119.566L163.757 120.298C163.79 120.314 163.833 120.331 163.876 120.331C163.966 120.331 164.003 120.258 164.003 120.175V120.115L163.737 118.565L164.857 117.467C164.891 117.434 164.934 117.378 164.934 117.321V117.308Z" fill="#FFD500"/>
<path d="M195.108 123.29H136.365C135.592 123.29 134.966 123.731 134.966 124.274V125.061C134.966 125.605 135.592 126.046 136.365 126.046H195.108C195.881 126.046 196.507 125.605 196.507 125.061V124.274C196.507 123.731 195.881 123.29 195.108 123.29Z" fill="#D8D7EF"/>
<path d="M171.722 129.427H135.45C134.973 129.427 134.586 129.906 134.586 130.498V131.355C134.586 131.947 134.973 132.427 135.45 132.427H171.722C172.199 132.427 172.586 131.947 172.586 131.355V130.498C172.586 129.906 172.199 129.427 171.722 129.427Z" fill="#D8D7EF"/>
<circle cx="112.003" cy="123.29" r="11.9408" fill="#342AAA"/>
<mask id="mask0" mask-type="alpha" maskUnits="userSpaceOnUse" x="100" y="111" width="24" height="25">
<circle cx="112.003" cy="123.29" r="11.9408" fill="#D8D7EF"/>
</mask>
<g mask="url(#mask0)">
<circle cx="112.003" cy="120.534" r="4.59261" fill="#D8D7EF"/>
<circle cx="112.003" cy="136.149" r="9.18521" fill="#D8D7EF"/>
</g>
<g filter="url(#filter0_d)">
<path d="M222.918 70.4266H78.0818C77.1606 70.4266 76.4138 71.075 76.4138 71.8749V115.624C76.4138 116.424 77.1606 117.073 78.0818 117.073H222.918C223.84 117.073 224.586 116.424 224.586 115.624V71.8749C224.586 71.075 223.84 70.4266 222.918 70.4266Z" fill="white"/>
</g>
<path d="M126.336 87.4976C126.336 87.3963 126.228 87.3528 126.155 87.342L124.453 87.0957L123.693 85.5606C123.668 85.499 123.61 85.4266 123.53 85.4266C123.458 85.4266 123.396 85.499 123.367 85.5642L122.607 87.103L120.912 87.3492C120.829 87.3637 120.724 87.4035 120.724 87.5049C120.724 87.5664 120.768 87.6244 120.807 87.6678L122.038 88.8626L121.749 90.5535C121.742 90.5752 121.742 90.597 121.742 90.6187C121.742 90.7092 121.789 90.7889 121.886 90.7889C121.933 90.7889 121.977 90.7708 122.02 90.7526L123.534 89.9561L125.054 90.7526C125.091 90.7708 125.138 90.7889 125.185 90.7889C125.286 90.7889 125.33 90.7092 125.33 90.6187C125.33 90.597 125.33 90.5752 125.322 90.5535L125.033 88.8663L126.264 87.6714C126.3 87.6352 126.347 87.5737 126.347 87.5121L126.336 87.4976ZM133.056 87.4976C133.056 87.3963 132.948 87.3528 132.868 87.342L131.173 87.0957L130.413 85.5606C130.384 85.499 130.33 85.4266 130.25 85.4266C130.178 85.4266 130.12 85.499 130.087 85.5642L129.327 87.103L127.636 87.3492C127.553 87.3637 127.448 87.4035 127.448 87.5049C127.448 87.5664 127.491 87.6244 127.531 87.6678L128.755 88.8626L128.465 90.5535L128.458 90.6187C128.458 90.7092 128.501 90.7889 128.603 90.7889C128.646 90.7889 128.693 90.7708 128.737 90.7526L130.25 89.9561L131.771 90.7526C131.807 90.7708 131.858 90.7889 131.905 90.7889C132.003 90.7889 132.042 90.7092 132.042 90.6187V90.5535L131.753 88.8663L132.962 87.657C133.006 87.6207 133.049 87.5592 133.049 87.4976H133.056ZM139.776 87.4976C139.776 87.3963 139.668 87.3528 139.588 87.342L137.893 87.0957L137.133 85.5606C137.104 85.499 137.046 85.4266 136.97 85.4266C136.891 85.4266 136.833 85.499 136.804 85.5642L136.043 87.103L134.356 87.3492C134.269 87.3637 134.164 87.4035 134.164 87.5049C134.164 87.5664 134.211 87.6244 134.255 87.6678L135.486 88.8626L135.196 90.5535L135.185 90.6187C135.185 90.7092 135.229 90.7889 135.33 90.7889C135.373 90.7889 135.417 90.7708 135.46 90.7526L136.981 89.9561L138.491 90.7526C138.527 90.7708 138.578 90.7889 138.625 90.7889C138.726 90.7889 138.77 90.7092 138.77 90.6187C138.77 90.597 138.77 90.5752 138.762 90.5535L138.466 88.8518L139.689 87.657C139.733 87.6207 139.776 87.5592 139.776 87.4976ZM146.496 87.4976C146.496 87.3963 146.388 87.3528 146.308 87.342L144.613 87.0957L143.853 85.5606C143.824 85.499 143.766 85.4266 143.687 85.4266C143.614 85.4266 143.553 85.499 143.524 85.5642L142.763 87.103L141.069 87.3492C140.982 87.3637 140.877 87.4035 140.877 87.5049C140.877 87.5664 140.92 87.6244 140.96 87.6678L142.191 88.8626L141.902 90.5535C141.894 90.5752 141.894 90.597 141.894 90.6187C141.894 90.7092 141.938 90.7889 142.039 90.7889C142.083 90.7889 142.126 90.7708 142.169 90.7526L143.683 89.9561L145.204 90.7526C145.24 90.7708 145.287 90.7889 145.334 90.7889C145.432 90.7889 145.472 90.7092 145.472 90.6187V90.5535L145.182 88.8663L146.406 87.6714C146.449 87.6352 146.493 87.5737 146.493 87.5121L146.496 87.4976ZM153.213 87.4976C153.213 87.3963 153.104 87.3528 153.024 87.342L151.333 87.0957L150.573 85.5606C150.544 85.499 150.49 85.4266 150.41 85.4266C150.338 85.4266 150.276 85.499 150.244 85.5642L149.483 87.103L147.792 87.3492C147.709 87.3637 147.604 87.4035 147.604 87.5049C147.604 87.5664 147.648 87.6244 147.687 87.6678L148.918 88.8626L148.629 90.5535L148.618 90.6187C148.618 90.7092 148.661 90.7889 148.763 90.7889C148.806 90.7889 148.853 90.7708 148.897 90.7526L150.41 89.9561L151.931 90.7526C151.967 90.7708 152.014 90.7889 152.061 90.7889C152.159 90.7889 152.199 90.7092 152.199 90.6187V90.5535L151.909 88.8663L153.129 87.6714C153.166 87.6352 153.213 87.5737 153.213 87.5121V87.4976Z" fill="#FFD500"/>
<path d="M211.473 94.0104H122.7C121.532 94.0104 120.586 94.4901 120.586 95.0818V95.939C120.586 96.5307 121.532 97.0104 122.7 97.0104H211.473C212.64 97.0104 213.586 96.5307 213.586 95.939V95.0818C213.586 94.4901 212.64 94.0104 211.473 94.0104Z" fill="#D8D7EF"/>
<path d="M174.336 100.01H121.836C121.146 100.01 120.586 100.49 120.586 101.082V101.939C120.586 102.531 121.146 103.01 121.836 103.01H174.336C175.027 103.01 175.586 102.531 175.586 101.939V101.082C175.586 100.49 175.027 100.01 174.336 100.01Z" fill="#D8D7EF"/>
<circle cx="99.5879" cy="95.4266" r="13" fill="#342AAA"/>
<mask id="mask1" mask-type="alpha" maskUnits="userSpaceOnUse" x="86" y="82" width="27" height="27">
<circle cx="99.5862" cy="95.4266" r="13" fill="#D8D7EF"/>
</mask>
<g mask="url(#mask1)">
<circle cx="99.5862" cy="92.4266" r="5" fill="#D8D7EF"/>
<circle cx="99.5862" cy="109.427" r="10" fill="#D8D7EF"/>
</g>
<path d="M211.793 80.4266C217.202 80.4266 221.586 76.0421 221.586 70.6335C221.586 65.2249 217.202 60.8404 211.793 60.8404C206.385 60.8404 202 65.2249 202 70.6335C202 76.0421 206.385 80.4266 211.793 80.4266Z" fill="#382DB8"/>
<path d="M216.696 67.7897L215.913 67.0006C215.751 66.8372 215.487 66.8361 215.324 66.9982L210.414 71.8687L208.337 69.7749C208.175 69.6115 207.911 69.6104 207.747 69.7726L206.958 70.5553C206.795 70.7175 206.794 70.9814 206.956 71.1448L210.109 74.3237C210.271 74.4871 210.535 74.4882 210.699 74.326L216.694 68.3792C216.857 68.2171 216.858 67.9532 216.696 67.7897Z" fill="white"/>
<defs>
<filter id="filter0_d" x="0.413818" y="0.426605" width="300.172" height="198.646" filterUnits="userSpaceOnUse" color-interpolation-filters="sRGB">
<feFlood flood-opacity="0" result="BackgroundImageFix"/>
<feColorMatrix in="SourceAlpha" type="matrix" values="0 0 0 0 0 0 0 0 0 0 0 0 0 0 0 0 0 0 127 0"/>
<feOffset dy="6"/>
<feGaussianBlur stdDeviation="38"/>
<feColorMatrix type="matrix" values="0 0 0 0 0 0 0 0 0 0 0 0 0 0 0 0 0 0 0.14 0"/>
<feBlend mode="normal" in2="BackgroundImageFix" result="effect1_dropShadow"/>
<feBlend mode="normal" in="SourceGraphic" in2="effect1_dropShadow" result="shape"/>
</filter>
</defs>
</svg>
