<svg width="239" height="104" viewBox="0 0 239 104" fill="none" xmlns="http://www.w3.org/2000/svg">
<g filter="url(#filter0_d)">
<path d="M199.775 38.1724H39.4668C38.4472 38.1724 37.6207 39.0015 37.6207 40.0242V61.3205C37.6207 62.3433 38.4472 63.1724 39.4668 63.1724H199.775C200.794 63.1724 201.621 62.3433 201.621 61.3205V40.0242C201.621 39.0015 200.794 38.1724 199.775 38.1724Z" fill="white"/>
</g>
<path d="M59.8479 44.1724H50.3934C49.4143 44.1724 48.6207 44.9661 48.6207 45.9451V55.3997C48.6207 56.3787 49.4143 57.1724 50.3934 57.1724H59.8479C60.827 57.1724 61.6207 56.3787 61.6207 55.3997V45.9451C61.6207 44.9661 60.827 44.1724 59.8479 44.1724Z" fill="#382DB8"/>
<path d="M183.093 48.1724H69.1481C68.3045 48.1724 67.6207 48.9719 67.6207 49.9581V51.3867C67.6207 52.3729 68.3045 53.1724 69.1481 53.1724H183.093C183.937 53.1724 184.621 52.3729 184.621 51.3867V49.9581C184.621 48.9719 183.937 48.1724 183.093 48.1724Z" fill="#342AAA" fill-opacity="0.19"/>
<g filter="url(#filter1_d)">
<path d="M212.116 13.1724H26.8842C25.7061 13.1724 24.751 14.1274 24.751 15.3056V39.8372C24.751 41.0153 25.7061 41.9704 26.8842 41.9704H212.116C213.294 41.9704 214.249 41.0153 214.249 39.8372V15.3056C214.249 14.1274 213.294 13.1724 212.116 13.1724Z" fill="black"/>
</g>
<path d="M212.116 13.1724H26.8842C25.7061 13.1724 24.751 14.1274 24.751 15.3056V39.8372C24.751 41.0153 25.7061 41.9704 26.8842 41.9704H212.116C213.294 41.9704 214.249 41.0153 214.249 39.8372V15.3056C214.249 14.1274 213.294 13.1724 212.116 13.1724Z" fill="white"/>
<path d="M50.2257 19.7041H39.2461C38.1091 19.7041 37.1874 20.6967 37.1874 21.9211V33.7453C37.1874 34.9697 38.1091 35.9623 39.2461 35.9623H50.2257C51.3627 35.9623 52.2844 34.9697 52.2844 33.7453V21.9211C52.2844 20.6967 51.3627 19.7041 50.2257 19.7041Z" fill="#382DB8"/>
<path d="M193.351 25.5106H61.026C60.0464 25.5106 59.2522 26.2534 59.2522 27.1696V28.4968C59.2522 29.413 60.0464 30.1558 61.026 30.1558H193.351C194.331 30.1558 195.125 29.413 195.125 28.4968V27.1696C195.125 26.2534 194.331 25.5106 193.351 25.5106Z" fill="#342AAA" fill-opacity="0.19"/>
<path d="M49.8351 25.1891L49.0155 24.4628C48.8458 24.3123 48.5694 24.3113 48.3983 24.4606L43.2573 28.9438L41.0826 27.0165C40.9129 26.8661 40.6365 26.8651 40.4654 27.0143L39.6391 27.7349C39.468 27.8841 39.4668 28.1271 39.6366 28.2775L42.9384 31.2036C43.1081 31.3541 43.3844 31.3551 43.5556 31.2058L49.8327 25.7318C50.0038 25.5825 50.0049 25.3396 49.8351 25.1891Z" fill="white"/>
<path d="M199.828 20.5862C205.465 20.5862 210.034 16.0164 210.034 10.3793C210.034 4.74216 205.465 0.172379 199.828 0.172379C194.19 0.172379 189.621 4.74216 189.621 10.3793C189.621 16.0164 194.19 20.5862 199.828 20.5862Z" fill="#382DB8"/>
<path fill-rule="evenodd" clip-rule="evenodd" d="M204.518 9.47929H200.648V5.60874C200.648 5.37113 200.455 5.17868 200.218 5.17868H199.358C199.12 5.17868 198.928 5.37113 198.928 5.60874V9.47929H195.057C194.819 9.47929 194.627 9.67174 194.627 9.90935V10.7695C194.627 11.0071 194.819 11.1995 195.057 11.1995H198.928V15.0701C198.928 15.3077 199.12 15.5001 199.358 15.5001H200.218C200.455 15.5001 200.648 15.3077 200.648 15.0701V11.1995H204.518C204.756 11.1995 204.948 11.0071 204.948 10.7695V9.90935C204.948 9.67174 204.756 9.47929 204.518 9.47929Z" fill="white"/>
<defs>
<filter id="filter0_d" x="1.62067" y="6.17238" width="236" height="97" filterUnits="userSpaceOnUse" color-interpolation-filters="sRGB">
<feFlood flood-opacity="0" result="BackgroundImageFix"/>
<feColorMatrix in="SourceAlpha" type="matrix" values="0 0 0 0 0 0 0 0 0 0 0 0 0 0 0 0 0 0 127 0"/>
<feOffset dy="4"/>
<feGaussianBlur stdDeviation="18"/>
<feColorMatrix type="matrix" values="0 0 0 0 0 0 0 0 0 0 0 0 0 0 0 0 0 0 0.14 0"/>
<feBlend mode="normal" in2="BackgroundImageFix" result="effect1_dropShadow"/>
<feBlend mode="normal" in="SourceGraphic" in2="effect1_dropShadow" result="shape"/>
</filter>
<filter id="filter1_d" x="0.751038" y="11.1724" width="237.498" height="76.798" filterUnits="userSpaceOnUse" color-interpolation-filters="sRGB">
<feFlood flood-opacity="0" result="BackgroundImageFix"/>
<feColorMatrix in="SourceAlpha" type="matrix" values="0 0 0 0 0 0 0 0 0 0 0 0 0 0 0 0 0 0 127 0"/>
<feOffset dy="22"/>
<feGaussianBlur stdDeviation="12"/>
<feColorMatrix type="matrix" values="0 0 0 0 0 0 0 0 0 0 0 0 0 0 0 0 0 0 0.0919384 0"/>
<feBlend mode="normal" in2="BackgroundImageFix" result="effect1_dropShadow"/>
<feBlend mode="normal" in="SourceGraphic" in2="effect1_dropShadow" result="shape"/>
</filter>
</defs>
</svg>
