<svg width="139" height="121" viewBox="0 0 139 121" fill="none" xmlns="http://www.w3.org/2000/svg">
<g filter="url(#filter0_d)">
<rect x="28.4235" y="38" width="82" height="51" fill="#C4C4C4"/>
</g>
<mask id="mask0" mask-type="alpha" maskUnits="userSpaceOnUse" x="25" y="3" width="90" height="90">
<path d="M113.421 3.7879H26.9549C26.4253 3.7879 25.996 4.60662 25.996 5.61655V90.3437C25.996 91.3536 26.4253 92.1724 26.9549 92.1724H113.421C113.951 92.1724 114.38 91.3536 114.38 90.3437V5.61655C114.38 4.60662 113.951 3.7879 113.421 3.7879Z" fill="white"/>
</mask>
<g mask="url(#mask0)">
<g filter="url(#filter1_d)">
<path d="M114.67 3.7879H26.9686C26.4314 3.7879 25.996 4.60662 25.996 5.61655V90.3437C25.996 91.3536 26.4314 92.1724 26.9686 92.1724H114.67C115.208 92.1724 115.643 91.3536 115.643 90.3437V5.61655C115.643 4.60662 115.208 3.7879 114.67 3.7879Z" fill="black"/>
</g>
<path d="M118.417 3.7879H27.0097C26.4498 3.7879 25.996 4.60662 25.996 5.61655V90.3437C25.996 91.3536 26.4498 92.1724 27.0097 92.1724H118.417C118.977 92.1724 119.431 91.3536 119.431 90.3437V5.61655C119.431 4.60662 118.977 3.7879 118.417 3.7879Z" fill="white"/>
<path d="M115.643 3.7879H25.996V12.6264H115.643V3.7879Z" fill="#382DB8"/>
<path d="M52.3729 22.8997H35.9921C35.4871 22.8997 35.0778 23.3091 35.0778 23.8141V40.1949C35.0778 40.6998 35.4871 41.1092 35.9921 41.1092H52.3729C52.8778 41.1092 53.2872 40.6998 53.2872 40.1949V23.8141C53.2872 23.3091 52.8778 22.8997 52.3729 22.8997Z" fill="#D8D7EF"/>
<path d="M78.9835 22.8998H62.6027C62.0977 22.8998 61.6884 23.3091 61.6884 23.8141V40.1949C61.6884 40.6999 62.0977 41.1092 62.6027 41.1092H78.9835C79.4884 41.1092 79.8978 40.6999 79.8978 40.1949V23.8141C79.8978 23.3091 79.4884 22.8998 78.9835 22.8998Z" fill="#D8D7EF"/>
<path d="M105.594 22.8998H89.2133C88.7083 22.8998 88.299 23.3091 88.299 23.8141V40.1949C88.299 40.6999 88.7083 41.1092 89.2133 41.1092H105.594C106.099 41.1092 106.508 40.6999 106.508 40.1949V23.8141C106.508 23.3091 106.099 22.8998 105.594 22.8998Z" fill="#D8D7EF"/>
<path d="M52.3729 51.9891H35.9921C35.4871 51.9891 35.0778 52.3984 35.0778 52.9034V69.2842C35.0778 69.7892 35.4871 70.1985 35.9921 70.1985H52.3729C52.8778 70.1985 53.2872 69.7892 53.2872 69.2842V52.9034C53.2872 52.3984 52.8778 51.9891 52.3729 51.9891Z" fill="#D8D7EF"/>
<path d="M78.9835 51.9891H62.6027C62.0977 51.9891 61.6884 52.3984 61.6884 52.9034V69.2842C61.6884 69.7892 62.0977 70.1985 62.6027 70.1985H78.9835C79.4884 70.1985 79.8978 69.7892 79.8978 69.2842V52.9034C79.8978 52.3984 79.4884 51.9891 78.9835 51.9891Z" fill="#382DB8"/>
<path d="M105.594 51.9891H89.2133C88.7083 51.9891 88.299 52.3984 88.299 52.9034V69.2842C88.299 69.7892 88.7083 70.1985 89.2133 70.1985H105.594C106.099 70.1985 106.508 69.7892 106.508 69.2842V52.9034C106.508 52.3984 106.099 51.9891 105.594 51.9891Z" fill="#D8D7EF"/>
</g>
<path d="M102.625 0H102.32C101.31 0 100.491 0.818711 100.491 1.82864V6.40025C100.491 7.41018 101.31 8.22889 102.32 8.22889H102.625C103.635 8.22889 104.454 7.41018 104.454 6.40025V1.82864C104.454 0.818711 103.635 0 102.625 0Z" fill="#382DB8"/>
<path d="M71.059 0H70.7542C69.7442 0 68.9255 0.818711 68.9255 1.82864V6.40025C68.9255 7.41018 69.7442 8.22889 70.7542 8.22889H71.059C72.0689 8.22889 72.8876 7.41018 72.8876 6.40025V1.82864C72.8876 0.818711 72.0689 0 71.059 0Z" fill="#382DB8"/>
<path d="M39.493 0H39.1883C38.1783 0 37.3596 0.818711 37.3596 1.82864V6.40025C37.3596 7.41018 38.1783 8.22889 39.1883 8.22889H39.493C40.503 8.22889 41.3217 7.41018 41.3217 6.40025V1.82864C41.3217 0.818711 40.503 0 39.493 0Z" fill="#382DB8"/>
<path d="M76.4133 57.9721L75.4914 57.0427C75.3004 56.8502 74.9896 56.8489 74.7971 57.0399L69.0144 62.7761L66.5683 60.3102C66.3774 60.1177 66.0665 60.1165 65.8741 60.3074L64.9446 61.2293C64.7521 61.4203 64.7509 61.7311 64.9418 61.9236L68.6557 65.6675C68.8466 65.86 69.1575 65.8613 69.3499 65.6703L76.4106 58.6664C76.603 58.4754 76.6042 58.1646 76.4133 57.9721Z" fill="white"/>
<path d="M114.642 42.1894C120.365 42.1894 125.004 37.5501 125.004 31.8271C125.004 26.1042 120.365 21.4648 114.642 21.4648C108.919 21.4648 104.279 26.1042 104.279 31.8271C104.279 37.5501 108.919 42.1894 114.642 42.1894Z" fill="#382DB8"/>
<path d="M120.165 30.6053L121.292 31.7661C121.375 31.8514 121.371 31.9884 121.283 32.0684C119.484 33.7055 117.128 34.6291 114.626 34.6247C112.183 34.6204 109.881 33.7322 108.103 32.1578C108.013 32.078 108.008 31.939 108.092 31.853L109.225 30.6943C109.302 30.6151 109.428 30.6095 109.512 30.6815C110.916 31.8824 112.717 32.5576 114.63 32.561C116.599 32.5644 118.451 31.855 119.875 30.5943C119.959 30.5197 120.087 30.5245 120.165 30.6053Z" fill="white"/>
<defs>
<filter id="filter0_d" x="0.423462" y="14" width="138" height="107" filterUnits="userSpaceOnUse" color-interpolation-filters="sRGB">
<feFlood flood-opacity="0" result="BackgroundImageFix"/>
<feColorMatrix in="SourceAlpha" type="matrix" values="0 0 0 0 0 0 0 0 0 0 0 0 0 0 0 0 0 0 127 0"/>
<feOffset dy="4"/>
<feGaussianBlur stdDeviation="14"/>
<feColorMatrix type="matrix" values="0 0 0 0 0 0 0 0 0 0 0 0 0 0 0 0 0 0 0.15 0"/>
<feBlend mode="normal" in2="BackgroundImageFix" result="effect1_dropShadow"/>
<feBlend mode="normal" in="SourceGraphic" in2="effect1_dropShadow" result="shape"/>
</filter>
<filter id="filter1_d" x="1.99597" y="1.7879" width="137.647" height="136.384" filterUnits="userSpaceOnUse" color-interpolation-filters="sRGB">
<feFlood flood-opacity="0" result="BackgroundImageFix"/>
<feColorMatrix in="SourceAlpha" type="matrix" values="0 0 0 0 0 0 0 0 0 0 0 0 0 0 0 0 0 0 127 0"/>
<feOffset dy="22"/>
<feGaussianBlur stdDeviation="12"/>
<feColorMatrix type="matrix" values="0 0 0 0 0 0 0 0 0 0 0 0 0 0 0 0 0 0 0.0919384 0"/>
<feBlend mode="normal" in2="BackgroundImageFix" result="effect1_dropShadow"/>
<feBlend mode="normal" in="SourceGraphic" in2="effect1_dropShadow" result="shape"/>
</filter>
</defs>
</svg>
