<svg width="128" height="31" viewBox="0 0 128 31" fill="none" xmlns="http://www.w3.org/2000/svg">
<g clip-path="url(#clip0)">
<path d="M41.6954 29.2192C41.1663 29.2192 40.6647 29.1648 40.1903 29.0559C39.716 28.947 39.2691 28.7746 38.8495 28.5388L39.643 25.1366C39.8437 25.2273 40.0809 25.3089 40.3545 25.3815C40.6464 25.4541 40.9201 25.4904 41.1755 25.4904C41.668 25.4904 42.0967 25.3362 42.4616 25.0277C42.8265 24.7374 43.1366 24.2747 43.392 23.6396L43.5015 23.3946L37.6728 9.10539H42.5711L45.5812 18.6315L48.2629 9.10539H52.997L47.1957 24.6466C46.6119 26.2071 45.8731 27.3593 44.9792 28.1033C44.0852 28.8472 42.9907 29.2192 41.6954 29.2192Z" fill="#382DB8"/>
<path d="M54.6162 23.6124V3.2536H59.0767V23.6124H54.6162Z" fill="#382DB8"/>
<path d="M69.0825 24.0206C67.9879 24.0206 66.9663 23.8301 66.0177 23.4491C65.0873 23.068 64.2663 22.5327 63.5548 21.8432C62.8616 21.1537 62.3234 20.3463 61.9403 19.4209C61.5572 18.4955 61.3657 17.4884 61.3657 16.3997C61.3657 15.311 61.5572 14.304 61.9403 13.3786C62.3417 12.435 62.889 11.6185 63.5822 10.929C64.2937 10.2213 65.1237 9.67696 66.0724 9.29591C67.0393 8.89672 68.0791 8.69712 69.192 8.69712C70.2865 8.69712 71.299 8.88765 72.2294 9.26869C73.1781 9.64974 73.999 10.1941 74.6923 10.9018C75.4037 11.5913 75.951 12.3987 76.3341 13.3241C76.7172 14.2495 76.9088 15.2566 76.9088 16.3453C76.9088 17.434 76.7081 18.4501 76.3068 19.3936C75.9237 20.319 75.3764 21.1265 74.6649 21.816C73.9717 22.5055 73.1416 23.0499 72.1747 23.4491C71.2261 23.8301 70.1953 24.0206 69.0825 24.0206ZM69.1372 20.0196C69.7393 20.0196 70.2865 19.8654 70.7791 19.5569C71.2717 19.2303 71.6548 18.7949 71.9284 18.2505C72.2203 17.688 72.3663 17.062 72.3663 16.3725C72.3663 15.6648 72.2203 15.0388 71.9284 14.4945C71.6548 13.932 71.2717 13.4965 70.7791 13.188C70.2865 12.8614 69.7393 12.6981 69.1372 12.6981C68.5352 12.6981 67.9879 12.8614 67.4953 13.188C67.0028 13.4965 66.6106 13.932 66.3187 14.4945C66.045 15.0388 65.9082 15.6648 65.9082 16.3725C65.9082 17.062 66.045 17.688 66.3187 18.2505C66.6106 18.7949 67.0028 19.2303 67.4953 19.5569C67.9879 19.8654 68.5352 20.0196 69.1372 20.0196Z" fill="#382DB8"/>
<path d="M79.2017 23.6124V9.10539H83.3063L83.4432 11.0106C83.8445 10.303 84.4009 9.74047 85.1124 9.32313C85.8239 8.90579 86.6266 8.69712 87.5205 8.69712C88.4691 8.69712 89.3083 8.93301 90.0381 9.40478C90.786 9.85841 91.3698 10.5026 91.7894 11.3372C92.2455 10.557 92.884 9.92192 93.7049 9.432C94.5259 8.94208 95.4654 8.69712 96.5235 8.69712C97.5816 8.69712 98.5029 8.95116 99.2873 9.45922C100.072 9.96728 100.674 10.6931 101.093 11.6366C101.513 12.562 101.723 13.6689 101.723 14.9572V23.6124H97.2623V15.5015C97.2623 14.6306 97.0708 13.9501 96.6877 13.4602C96.3046 12.9521 95.7755 12.6981 95.1005 12.6981C94.6262 12.6981 94.2066 12.8161 93.8417 13.0519C93.4951 13.2878 93.2124 13.6144 92.9934 14.0318C92.7928 14.4491 92.6924 14.9209 92.6924 15.4471V23.6124H88.232V15.5015C88.232 14.6306 88.0404 13.9501 87.6573 13.4602C87.2742 12.9521 86.7452 12.6981 86.0702 12.6981C85.5959 12.6981 85.1763 12.8161 84.8114 13.0519C84.4648 13.2878 84.182 13.6144 83.9631 14.0318C83.7624 14.4491 83.6621 14.9209 83.6621 15.4471V23.6124H79.2017Z" fill="#382DB8"/>
<path d="M109.215 5.29492C109.215 5.74855 109.106 6.15682 108.887 6.51972C108.686 6.88262 108.394 7.17294 108.011 7.39068C107.628 7.60842 107.199 7.71729 106.725 7.71729C106.251 7.71729 105.822 7.60842 105.439 7.39068C105.074 7.17294 104.782 6.88262 104.563 6.51972C104.363 6.15682 104.262 5.74855 104.262 5.29492C104.262 4.8413 104.363 4.43303 104.563 4.07013C104.782 3.70723 105.074 3.41691 105.439 3.19917C105.822 2.98143 106.251 2.87256 106.725 2.87256C107.199 2.87256 107.628 2.98143 108.011 3.19917C108.394 3.41691 108.686 3.70723 108.887 4.07013C109.106 4.43303 109.215 4.8413 109.215 5.29492ZM104.509 23.6124V9.10539H108.969V23.6124H104.509Z" fill="#382DB8"/>
<path d="M114.241 23.7212C113.73 23.7212 113.265 23.6033 112.845 23.3674C112.444 23.1134 112.125 22.7868 111.887 22.3876C111.65 21.9702 111.532 21.5166 111.532 21.0267C111.532 20.5368 111.65 20.0922 111.887 19.693C112.125 19.2757 112.444 18.9491 112.845 18.7132C113.265 18.4592 113.73 18.3322 114.241 18.3322C114.752 18.3322 115.208 18.4592 115.609 18.7132C116.029 18.9491 116.357 19.2757 116.594 19.693C116.831 20.0922 116.95 20.5368 116.95 21.0267C116.95 21.5166 116.831 21.9702 116.594 22.3876C116.357 22.7868 116.029 23.1134 115.609 23.3674C115.208 23.6033 114.752 23.7212 114.241 23.7212Z" fill="#382DB8"/>
<path d="M30.1634 3.41846V8.17427C30.158 13.1448 28.1704 17.9102 24.6367 21.4249C21.103 24.9397 16.3119 26.9166 11.3145 26.9219V23.1774C15.3129 23.1721 19.146 21.5895 21.9729 18.7769C24.7998 15.9643 26.3896 12.1513 26.3936 8.17427V3.41846H30.1634Z" fill="#382DB8"/>
<path d="M22.6238 6.5332V8.1741C22.5611 11.1168 21.3418 13.9179 19.2272 15.977C17.1126 18.0361 14.2712 19.1892 11.3119 19.1892C8.35266 19.1892 5.51119 18.0361 3.39663 15.977C1.28207 13.9179 0.0627253 11.1168 0 8.1741L0 6.5332H3.76471V8.1741C3.7463 9.17164 3.92794 10.1628 4.29903 11.0898C4.67011 12.0167 5.22319 12.8608 5.92595 13.5727C6.62872 14.2847 7.46707 14.8502 8.39205 15.2362C9.31703 15.6222 10.3101 15.8211 11.3132 15.8211C12.3163 15.8211 13.3093 15.6222 14.2343 15.2362C15.1593 14.8502 15.9977 14.2847 16.7004 13.5727C17.4032 12.8608 17.9563 12.0167 18.3273 11.0898C18.6984 10.1628 18.8801 9.17164 18.8617 8.1741V6.5332H22.6238Z" fill="#FFCC30"/>
</g>
<defs>
<clipPath id="clip0">
<rect width="128" height="31" fill="white"/>
</clipPath>
</defs>
</svg>
