<svg width="352" height="803" viewBox="0 0 352 803" fill="none" xmlns="http://www.w3.org/2000/svg">
<path fill-rule="evenodd" clip-rule="evenodd" d="M383.96 -81.0247C397.674 -102.263 412.201 -118.542 425.559 -126.566L442.552 -98.2779C435.67 -94.1438 424.464 -82.9168 411.682 -63.1228C399.213 -43.8141 386.128 -17.7248 374.859 14.3248C352.336 78.3806 337.306 165.575 348.494 268.792C368.063 449.348 442.797 546.573 519.902 601C590.593 650.901 664.46 665.835 705.5 674.133C709.705 674.983 713.566 675.763 717.043 676.505C719.541 677.037 722.065 677.503 724.611 677.905C750.249 672.88 771.956 665.176 783.831 659.775L791.494 676.624C794.106 676.201 796.697 675.745 799.261 675.258C825.686 670.247 848.14 662.307 860.293 656.779L873.955 686.818C859.375 693.449 834.397 702.183 805.41 707.681C781.003 712.309 752.917 714.805 725.358 711.337C697.234 716.349 664.624 718.368 633.7 711.775C630.391 711.07 626.631 710.314 622.467 709.477C613.7 707.716 603.137 705.593 591.198 702.816L600.284 722.793C585.705 729.424 560.727 738.158 531.739 743.656C502.823 749.139 468.74 751.63 436.491 744.754C433.182 744.049 429.423 743.293 425.258 742.456C384.231 734.212 303.883 718.065 227.201 663.935C141.905 603.726 62.5444 497.731 42.0152 308.323C38.1411 272.579 37.2546 238.599 38.6704 206.652C32.3532 251.96 30.7394 303.075 36.787 358.872C56.3567 539.428 131.09 636.653 208.195 691.08C278.887 740.981 352.754 755.915 393.794 764.213C397.999 765.063 401.859 765.843 405.336 766.584C431.522 772.167 467.228 769.728 500.851 763.865C534.377 758.02 563.106 749.273 574.699 744.001L588.362 774.04C573.222 780.925 541.463 790.282 506.52 796.375C471.673 802.45 430.928 805.782 398.455 798.859C395.146 798.154 391.387 797.398 387.222 796.561C346.195 788.316 265.847 772.17 189.165 718.04C103.869 657.831 24.5084 551.836 3.97915 362.427C-7.7654 254.069 7.94712 161.926 32.0204 93.4587C44.0494 59.247 58.225 30.7785 72.253 9.05527C80.4631 -3.65863 88.9641 -14.5955 97.3313 -23.0481C101.62 -31.0043 105.961 -38.3479 110.289 -45.0496C124.004 -66.2877 138.53 -82.5669 151.888 -90.5913L168.882 -62.3028C161.999 -58.1687 150.793 -46.9417 138.011 -27.1477C134.947 -22.4029 131.846 -17.2485 128.744 -11.6969L130.845 -8.19796C128.9 -7.02914 126.608 -5.29335 124.033 -2.95729C116.103 12.2944 108.285 30.1151 101.188 50.2999C78.6659 114.356 63.6359 201.55 74.8231 304.767C94.3928 485.323 169.126 582.548 246.232 636.976C316.923 686.876 390.79 701.81 431.83 710.108C436.035 710.958 439.895 711.738 443.372 712.48C469.782 718.11 499.094 716.258 525.591 711.233C544.018 707.739 560.515 702.82 572.933 698.288C530.84 687.169 476.77 667.918 424.409 630.956C339.114 570.747 259.753 464.752 239.224 275.344C227.479 166.985 243.192 74.8418 267.265 6.37488C279.294 -27.8368 293.469 -56.3053 307.497 -78.0286C321.212 -99.2667 335.739 -115.546 349.097 -123.57L366.09 -95.2818C359.208 -91.1477 348.002 -79.9207 335.22 -60.1267C322.751 -40.818 309.665 -14.7287 298.397 17.321C275.874 81.3768 260.844 168.571 272.031 271.788C291.601 452.344 366.335 549.569 443.44 603.997C478.477 628.729 514.295 644.872 546.509 655.875C531.375 647.903 516.051 638.676 500.871 627.96C415.576 567.751 336.215 461.756 315.686 272.347C303.941 163.989 319.654 71.8457 343.727 3.37875C355.756 -30.833 369.932 -59.3014 383.96 -81.0247Z" fill="#1B1749" fill-opacity="0.18"/>
</svg>
