<svg width="400" height="250" viewBox="0 0 437 258" fill="none" xmlns="http://www.w3.org/2000/svg">
<rect x="97.4191" y="130.194" width="305.366" height="87.9453" rx="8" fill="white"/>
<path d="M113.419 174.388C113.419 180.463 118.344 185.388 124.419 185.388H141.396C147.472 185.388 152.396 180.463 152.396 174.388V157.194C152.396 151.119 147.472 146.194 141.396 146.194H124.419C118.344 146.194 113.419 151.119 113.419 157.194V174.388Z" fill="#53D96A"/>
<path fill-rule="evenodd" clip-rule="evenodd" d="M132.935 175.432C138.312 175.432 142.671 171.073 142.671 165.696C142.671 160.319 138.312 155.961 132.935 155.961C127.558 155.961 123.2 160.319 123.2 165.696C123.2 167.446 123.662 169.089 124.47 170.508L123.201 175.364L128.446 174.337C129.789 175.036 131.316 175.432 132.935 175.432Z" fill="#53D96A"/>
<path d="M128.076 173.201L128.403 173.395C129.774 174.21 131.346 174.641 132.949 174.641H132.953C137.877 174.641 141.884 170.631 141.886 165.701C141.887 163.312 140.959 161.065 139.272 159.376C137.585 157.686 135.343 156.755 132.956 156.754C128.029 156.754 124.021 160.764 124.019 165.694C124.018 167.383 124.491 169.028 125.385 170.452L125.598 170.79L124.695 174.089L128.076 173.201ZM122.114 176.644L123.639 171.071C122.699 169.439 122.204 167.589 122.204 165.693C122.207 159.762 127.028 154.937 132.953 154.937C135.828 154.938 138.526 156.058 140.556 158.092C142.585 160.125 143.702 162.827 143.701 165.702C143.699 171.632 138.877 176.458 132.953 176.458C132.952 176.458 132.953 176.458 132.953 176.458H132.948C131.15 176.458 129.382 176.006 127.812 175.149L122.114 176.644Z" fill="white"/>
<path fill-rule="evenodd" clip-rule="evenodd" d="M130.267 161.196C130.065 160.748 129.854 160.739 129.662 160.731C129.506 160.725 129.327 160.725 129.148 160.725C128.968 160.725 128.678 160.793 128.432 161.062C128.185 161.331 127.491 161.981 127.491 163.304C127.491 164.627 128.454 165.905 128.588 166.084C128.722 166.264 130.446 169.065 133.176 170.142C135.444 171.038 135.906 170.86 136.398 170.815C136.891 170.77 137.987 170.165 138.211 169.537C138.435 168.909 138.435 168.371 138.368 168.259C138.301 168.147 138.122 168.08 137.853 167.945C137.584 167.811 136.264 167.16 136.018 167.071C135.772 166.981 135.593 166.936 135.413 167.205C135.235 167.474 134.72 168.08 134.563 168.259C134.407 168.439 134.25 168.461 133.981 168.326C133.713 168.192 132.848 167.908 131.822 166.992C131.023 166.28 130.484 165.399 130.328 165.13C130.171 164.861 130.311 164.716 130.446 164.582C130.566 164.461 130.714 164.268 130.849 164.111C130.983 163.954 131.027 163.842 131.117 163.663C131.206 163.483 131.162 163.326 131.094 163.192C131.027 163.057 130.505 161.728 130.267 161.196Z" fill="white"/>
<rect x="170.396" y="146.194" width="163.122" height="10.6202" rx="3" fill="#F2F2F2"/>
<rect x="170.396" y="169.814" width="210" height="7" rx="2" fill="#E0E0E0"/>
<rect x="170.396" y="184.814" width="210" height="7" rx="2" fill="#E0E0E0"/>
<g filter="url(#filter0_d)">
<rect x="76.1804" y="72.7854" width="284.776" height="83.4924" rx="8" fill="white"/>
<path d="M92.1804 116.979C92.1804 123.054 97.1053 127.979 103.18 127.979H120.158C126.233 127.979 131.158 123.054 131.158 116.979V99.7854C131.158 93.7103 126.233 88.7854 120.158 88.7854H103.18C97.1053 88.7854 92.1804 93.7103 92.1804 99.7854V116.979Z" fill="#53D96A"/>
<path fill-rule="evenodd" clip-rule="evenodd" d="M111.696 118.023C117.073 118.023 121.432 113.664 121.432 108.287C121.432 102.911 117.073 98.552 111.696 98.552C106.32 98.552 101.961 102.911 101.961 108.287C101.961 110.038 102.423 111.68 103.231 113.1L101.963 117.955L107.207 116.928C108.551 117.628 110.077 118.023 111.696 118.023Z" fill="#53D96A"/>
<path d="M106.837 115.793L107.164 115.986C108.535 116.801 110.107 117.232 111.711 117.233H111.714C116.638 117.233 120.646 113.222 120.648 108.292C120.648 105.903 119.72 103.657 118.033 101.967C116.347 100.277 114.104 99.3461 111.718 99.3451C106.79 99.3451 102.782 103.355 102.781 108.285C102.78 109.974 103.252 111.619 104.146 113.043L104.359 113.381L103.456 116.68L106.837 115.793ZM100.876 119.236L102.4 113.662C101.46 112.031 100.965 110.18 100.966 108.284C100.968 102.353 105.79 97.5281 111.714 97.5281C114.589 97.5295 117.288 98.6496 119.317 100.683C121.346 102.716 122.464 105.419 122.463 108.293C122.46 114.224 117.638 119.05 111.714 119.05C111.714 119.05 111.715 119.05 111.714 119.05H111.71C109.911 119.049 108.143 118.597 106.573 117.74L100.876 119.236Z" fill="white"/>
<path fill-rule="evenodd" clip-rule="evenodd" d="M109.028 103.787C108.827 103.34 108.615 103.331 108.424 103.323C108.267 103.316 108.088 103.317 107.909 103.317C107.73 103.317 107.439 103.384 107.193 103.653C106.947 103.922 106.253 104.572 106.253 105.895C106.253 107.218 107.215 108.496 107.349 108.676C107.484 108.855 109.207 111.656 111.937 112.734C114.206 113.629 114.667 113.451 115.16 113.406C115.652 113.362 116.749 112.756 116.972 112.128C117.196 111.501 117.196 110.963 117.129 110.85C117.062 110.738 116.883 110.671 116.614 110.537C116.346 110.402 115.025 109.752 114.779 109.662C114.533 109.572 114.354 109.527 114.175 109.796C113.996 110.066 113.481 110.671 113.325 110.85C113.168 111.03 113.011 111.052 112.743 110.918C112.474 110.783 111.609 110.499 110.583 109.583C109.785 108.871 109.246 107.991 109.089 107.722C108.932 107.453 109.072 107.307 109.207 107.173C109.328 107.053 109.475 106.859 109.61 106.702C109.744 106.545 109.789 106.433 109.878 106.254C109.968 106.074 109.923 105.917 109.856 105.783C109.789 105.649 109.267 104.319 109.028 103.787Z" fill="white"/>
<rect x="149.158" y="88.7854" width="195.798" height="13.163" rx="3" fill="#F2F2F2"/>
<rect x="149.158" y="114.948" width="195.798" height="8.66469" rx="2" fill="#E0E0E0"/>
<rect x="149.158" y="131.613" width="195.798" height="8.66469" rx="2" fill="#E0E0E0"/>
</g>
<path d="M386.69 86.519L390.742 69" stroke="#FCCF42" stroke-width="7" stroke-linecap="round"/>
<path d="M407.774 99.0782L429.124 87.5436" stroke="#FCCF42" stroke-width="7" stroke-linecap="round"/>
<path d="M104.434 236.017L100.381 253.536" stroke="#FCCF42" stroke-width="7" stroke-linecap="round"/>
<path d="M83.3499 223.458L62 234.993" stroke="#FCCF42" stroke-width="7" stroke-linecap="round"/>
<defs>
<filter id="filter0_d" x="0.180405" y="0.7854" width="436.776" height="235.492" filterUnits="userSpaceOnUse" color-interpolation-filters="sRGB">
<feFlood flood-opacity="0" result="BackgroundImageFix"/>
<feColorMatrix in="SourceAlpha" type="matrix" values="0 0 0 0 0 0 0 0 0 0 0 0 0 0 0 0 0 0 127 0"/>
<feOffset dy="4"/>
<feGaussianBlur stdDeviation="38"/>
<feColorMatrix type="matrix" values="0 0 0 0 0 0 0 0 0 0 0 0 0 0 0 0 0 0 0.25 0"/>
<feBlend mode="normal" in2="BackgroundImageFix" result="effect1_dropShadow"/>
<feBlend mode="normal" in="SourceGraphic" in2="effect1_dropShadow" result="shape"/>
</filter>
</defs>
</svg>
