<svg width="128" height="32" viewBox="0 0 128 32" fill="none" xmlns="http://www.w3.org/2000/svg">
<g clip-path="url(#clip0)">
<path d="M41.6954 29.719C41.1663 29.719 40.6647 29.6646 40.1903 29.5557C39.716 29.4468 39.2691 29.2745 38.8495 29.0386L39.643 25.6364C39.8437 25.7271 40.0809 25.8088 40.3545 25.8813C40.6464 25.9539 40.9201 25.9902 41.1755 25.9902C41.668 25.9902 42.0967 25.836 42.4616 25.5275C42.8265 25.2372 43.1366 24.7745 43.392 24.1394L43.5015 23.8944L37.6728 9.60521H42.5711L45.5812 19.1314L48.2629 9.60521H52.997L47.1957 25.1465C46.6119 26.7069 45.8731 27.8591 44.9792 28.6031C44.0852 29.347 42.9907 29.719 41.6954 29.719Z" fill="white"/>
<path d="M54.6162 24.1122V3.75342H59.0767V24.1122H54.6162Z" fill="white"/>
<path d="M69.0825 24.5205C67.9879 24.5205 66.9663 24.3299 66.0177 23.9489C65.0873 23.5678 64.2663 23.0326 63.5548 22.343C62.8616 21.6535 62.3234 20.8461 61.9403 19.9207C61.5572 18.9953 61.3657 17.9882 61.3657 16.8995C61.3657 15.8108 61.5572 14.8038 61.9403 13.8784C62.3417 12.9348 62.889 12.1183 63.5822 11.4288C64.2937 10.7211 65.1237 10.1768 66.0724 9.79573C67.0393 9.39654 68.0791 9.19694 69.192 9.19694C70.2865 9.19694 71.299 9.38747 72.2294 9.76851C73.1781 10.1496 73.999 10.6939 74.6923 11.4016C75.4037 12.0911 75.951 12.8985 76.3341 13.8239C76.7172 14.7493 76.9088 15.7564 76.9088 16.8451C76.9088 17.9338 76.7081 18.9499 76.3068 19.8935C75.9237 20.8189 75.3764 21.6263 74.6649 22.3158C73.9717 23.0053 73.1416 23.5497 72.1747 23.9489C71.2261 24.3299 70.1953 24.5205 69.0825 24.5205ZM69.1372 20.5195C69.7393 20.5195 70.2865 20.3652 70.7791 20.0568C71.2717 19.7302 71.6548 19.2947 71.9284 18.7503C72.2203 18.1878 72.3663 17.5618 72.3663 16.8723C72.3663 16.1646 72.2203 15.5386 71.9284 14.9943C71.6548 14.4318 71.2717 13.9963 70.7791 13.6878C70.2865 13.3612 69.7393 13.1979 69.1372 13.1979C68.5352 13.1979 67.9879 13.3612 67.4953 13.6878C67.0028 13.9963 66.6106 14.4318 66.3187 14.9943C66.045 15.5386 65.9082 16.1646 65.9082 16.8723C65.9082 17.5618 66.045 18.1878 66.3187 18.7503C66.6106 19.2947 67.0028 19.7302 67.4953 20.0568C67.9879 20.3652 68.5352 20.5195 69.1372 20.5195Z" fill="white"/>
<path d="M79.2017 24.1122V9.60521H83.3063L83.4432 11.5104C83.8445 10.8028 84.4009 10.2403 85.1124 9.82295C85.8239 9.40561 86.6266 9.19694 87.5205 9.19694C88.4691 9.19694 89.3083 9.43283 90.0381 9.9046C90.786 10.3582 91.3698 11.0024 91.7894 11.837C92.2455 11.0568 92.884 10.4217 93.7049 9.93182C94.5259 9.4419 95.4654 9.19694 96.5235 9.19694C97.5816 9.19694 98.5029 9.45097 99.2873 9.95903C100.072 10.4671 100.674 11.1929 101.093 12.1364C101.513 13.0618 101.723 14.1687 101.723 15.457V24.1122H97.2623V16.0013C97.2623 15.1304 97.0708 14.4499 96.6877 13.96C96.3046 13.452 95.7755 13.1979 95.1005 13.1979C94.6262 13.1979 94.2066 13.3159 93.8417 13.5518C93.4951 13.7876 93.2124 14.1143 92.9934 14.5316C92.7928 14.9489 92.6924 15.4207 92.6924 15.9469V24.1122H88.232V16.0013C88.232 15.1304 88.0404 14.4499 87.6573 13.96C87.2742 13.452 86.7452 13.1979 86.0702 13.1979C85.5959 13.1979 85.1763 13.3159 84.8114 13.5518C84.4648 13.7876 84.182 14.1143 83.9631 14.5316C83.7624 14.9489 83.6621 15.4207 83.6621 15.9469V24.1122H79.2017Z" fill="white"/>
<path d="M109.215 5.79474C109.215 6.24837 109.106 6.65663 108.887 7.01953C108.686 7.38243 108.394 7.67276 108.011 7.8905C107.628 8.10824 107.199 8.21711 106.725 8.21711C106.251 8.21711 105.822 8.10824 105.439 7.8905C105.074 7.67276 104.782 7.38243 104.563 7.01953C104.363 6.65663 104.262 6.24837 104.262 5.79474C104.262 5.34112 104.363 4.93285 104.563 4.56995C104.782 4.20705 105.074 3.91673 105.439 3.69899C105.822 3.48125 106.251 3.37238 106.725 3.37238C107.199 3.37238 107.628 3.48125 108.011 3.69899C108.394 3.91673 108.686 4.20705 108.887 4.56995C109.106 4.93285 109.215 5.34112 109.215 5.79474ZM104.509 24.1122V9.60521H108.969V24.1122H104.509Z" fill="white"/>
<path d="M114.241 24.2211C113.73 24.2211 113.265 24.1031 112.845 23.8672C112.444 23.6132 112.125 23.2866 111.887 22.8874C111.65 22.4701 111.532 22.0164 111.532 21.5265C111.532 21.0366 111.65 20.592 111.887 20.1929C112.125 19.7755 112.444 19.4489 112.845 19.213C113.265 18.959 113.73 18.832 114.241 18.832C114.752 18.832 115.208 18.959 115.609 19.213C116.029 19.4489 116.357 19.7755 116.594 20.1929C116.831 20.592 116.95 21.0366 116.95 21.5265C116.95 22.0164 116.831 22.4701 116.594 22.8874C116.357 23.2866 116.029 23.6132 115.609 23.8672C115.208 24.1031 114.752 24.2211 114.241 24.2211Z" fill="white"/>
<path d="M30.1634 3.91833V8.67415C30.158 13.6447 28.1704 18.4101 24.6367 21.9248C21.103 25.4395 16.3119 27.4165 11.3145 27.4218V23.6773C15.3129 23.672 19.146 22.0894 21.9729 19.2768C24.7998 16.4641 26.3896 12.6511 26.3936 8.67415V3.91833H30.1634Z" fill="white"/>
<path d="M22.6238 7.03323V8.67413C22.5611 11.6168 21.3418 14.4179 19.2272 16.477C17.1126 18.5361 14.2712 19.6892 11.3119 19.6892C8.35266 19.6892 5.51119 18.5361 3.39663 16.477C1.28207 14.4179 0.0627253 11.6168 0 8.67413L0 7.03323H3.76471V8.67413C3.7463 9.67167 3.92794 10.6629 4.29903 11.5898C4.67011 12.5167 5.22319 13.3608 5.92595 14.0728C6.62872 14.7847 7.46707 15.3502 8.39205 15.7362C9.31703 16.1223 10.3101 16.3211 11.3132 16.3211C12.3163 16.3211 13.3093 16.1223 14.2343 15.7362C15.1593 15.3502 15.9977 14.7847 16.7004 14.0728C17.4032 13.3608 17.9563 12.5167 18.3273 11.5898C18.6984 10.6629 18.8801 9.67167 18.8617 8.67413V7.03323H22.6238Z" fill="#FFCC30"/>
</g>
<defs>
<clipPath id="clip0">
<rect width="128" height="31" fill="white" transform="translate(0 0.5)"/>
</clipPath>
</defs>
</svg>
